<?xml version="1.0" encoding="iso-8859-1"?>
<!-- Uploaded to: SVG Repo, www.svgrepo.com, Generator: SVG Repo Mixer Tools -->
<svg version="1.1" id="Layer_1" xmlns="http://www.w3.org/2000/svg" xmlns:xlink="http://www.w3.org/1999/xlink" 
	 viewBox="0 0 512 512" xml:space="preserve">
<g>
	<rect x="44.866" y="147.794" style="fill:#FDB51E;" width="422.268" height="306.144"/>
	<rect x="240.165" y="63.34" style="fill:#FDB51E;" width="248.082" height="47.505"/>
</g>
<path style="fill:#FFD311;" d="M240.165,110.845h248.082h15.835v380.041H7.918V73.897l52.784-52.784h179.464V63.34V110.845z
	 M467.134,453.938V147.794H44.866v306.144H467.134z"/>
<rect x="44.866" y="147.794" style="fill:#FAA61F;" width="211.134" height="306.144"/>
<g>
	<rect x="65.979" y="171.546" style="fill:#FFFFFF;" width="21.113" height="15.835"/>
	<rect x="424.907" y="171.546" style="fill:#FFFFFF;" width="21.113" height="15.835"/>
	<rect x="65.979" y="414.351" style="fill:#FFFFFF;" width="21.113" height="15.835"/>
	<rect x="424.907" y="414.351" style="fill:#FFFFFF;" width="21.113" height="15.835"/>
</g>
<path style="fill:#E7ECED;" d="M356.289,300.866H256V200.577C311.423,200.577,356.289,245.443,356.289,300.866z"/>
<path style="fill:#1C75BC;" d="M256,300.866h100.289c0,55.423-44.866,100.289-100.289,100.289s-100.289-44.866-100.289-100.289
	S200.577,200.577,256,200.577V300.866z"/>
<path d="M496.165,102.928V55.423H248.082V13.196H57.422L0,70.618v428.186h512V102.928H496.165z M480.33,71.258v31.67H248.082v-31.67
	H480.33z M496.165,482.969H15.835V77.176L63.98,29.031h168.267v73.897H50.144v15.835h446.021V482.969z"/>
<path d="M36.948,461.856h438.103V139.876H36.948V461.856z M52.784,155.711h406.433v290.309H52.784V155.711z"/>
<path d="M256,192.66c-59.665,0-108.206,48.541-108.206,108.206S196.335,409.072,256,409.072s108.206-48.541,108.206-108.206
	S315.665,192.66,256,192.66z M348.028,292.948h-84.111v-84.111C308.547,212.645,344.221,248.319,348.028,292.948z M256,393.237
	c-50.934,0-92.371-41.437-92.371-92.371c0-48.266,37.213-87.999,84.454-92.028v99.946h99.946
	C343.999,356.025,304.266,393.237,256,393.237z"/>
<g>
	<rect x="208.495" y="287.67" style="fill:#FFFFFF;" width="21.113" height="15.835"/>
	<rect x="208.495" y="324.619" style="fill:#FFFFFF;" width="21.113" height="15.835"/>
	<rect x="245.443" y="324.619" style="fill:#FFFFFF;" width="21.113" height="15.835"/>
</g>
</svg>