<?xml version="1.0" encoding="iso-8859-1"?>
<!-- Uploaded to: SVG Repo, www.svgrepo.com, Generator: SVG Repo Mixer Tools -->
<svg version="1.1" id="Layer_1" xmlns="http://www.w3.org/2000/svg" xmlns:xlink="http://www.w3.org/1999/xlink" 
	 viewBox="0 0 512 512" xml:space="preserve">
<path style="fill:#F23222;" d="M323.517,216.615c0,37.247-30.27,67.516-67.517,67.516s-67.516-30.27-67.516-67.516
	s30.27-67.516,67.516-67.516S323.517,179.369,323.517,216.615z"/>
<path style="fill:#E7ECED;" d="M256,70.33c77.644,0,140.659,63.015,140.659,140.659S333.644,351.648,256,351.648
	s-140.659-63.015-140.659-140.659S178.356,70.33,256,70.33z M323.517,216.615c0-37.247-30.27-67.516-67.517-67.516
	s-67.516,30.27-67.516,67.516s30.27,67.516,67.516,67.516S323.517,253.862,323.517,216.615z"/>
<path style="fill:#F23222;" d="M289.758,410.613c-10.915,1.913-22.28,2.926-33.758,2.926c-11.478,0-22.843-1.013-33.758-2.926
	c-95.761-15.979-168.791-99.249-168.791-199.624C53.451,99.137,144.148,8.44,256,8.44s202.549,90.697,202.549,202.549
	C458.549,311.364,385.519,394.634,289.758,410.613z M396.659,210.989c0-77.644-63.015-140.659-140.659-140.659
	s-140.659,63.015-140.659,140.659S178.356,351.648,256,351.648S396.659,288.633,396.659,210.989z"/>
<path style="fill:#A26234;" d="M289.758,410.613v92.948h-67.516v-92.948c10.915,1.913,22.28,2.926,33.758,2.926
	C267.478,413.538,278.843,412.526,289.758,410.613z"/>
<path style="fill:#834F26;" d="M222.242,410.613v92.948H256v-90.022C244.522,413.538,233.157,412.526,222.242,410.613z"/>
<path style="fill:#F23222;" d="M188.484,216.615c0,37.247,30.27,67.516,67.516,67.516V149.099
	C218.753,149.099,188.484,179.369,188.484,216.615z"/>
<path style="fill:#D2D6D8;" d="M115.341,210.989c0,77.644,63.015,140.659,140.659,140.659v-67.517
	c-37.247,0-67.516-30.27-67.516-67.516s30.27-67.516,67.516-67.516V70.33C178.356,70.33,115.341,133.345,115.341,210.989z"/>
<path style="fill:#F23222;" d="M115.341,210.989c0-77.644,63.015-140.659,140.659-140.659V8.44
	c-111.852,0-202.549,90.697-202.549,202.549c0,100.375,73.03,183.645,168.791,199.624c10.915,1.913,22.28,2.926,33.758,2.926v-61.89
	C178.356,351.648,115.341,288.633,115.341,210.989z"/>
<g>
	<rect x="247.56" y="171.604" style="fill:#FFFFFF;" width="16.879" height="33.758"/>
	<rect x="247.56" y="227.868" style="fill:#FFFFFF;" width="16.879" height="33.758"/>
	<rect x="267.253" y="208.176" style="fill:#FFFFFF;" width="33.758" height="16.879"/>
	<rect x="210.989" y="208.176" style="fill:#FFFFFF;" width="33.758" height="16.879"/>
</g>
<path d="M416.479,347.933c32.572-38.104,50.51-86.737,50.51-136.944C466.989,94.649,372.34,0,256,0S45.011,94.649,45.011,210.989
	c0,50.206,17.938,98.84,50.51,136.944c30.641,35.846,72.424,60.401,118.281,69.689v77.499H98.462V512h315.077v-16.879H298.198
	v-77.499C344.054,408.334,385.838,383.778,416.479,347.933z M108.352,336.966C78.39,301.916,61.89,257.177,61.89,210.989
	c0-107.033,87.077-194.11,194.11-194.11s194.11,87.077,194.11,194.11c0,46.188-16.5,90.927-46.461,125.977
	c-29.631,34.664-70.572,57.863-115.347,65.335c-21.193,3.715-43.409,3.715-64.602,0l-0.069-0.012
	C178.923,394.829,137.982,371.63,108.352,336.966z M230.681,495.121v-74.723c8.379,1.043,16.857,1.58,25.319,1.58
	c8.47,0,16.957-0.537,25.319-1.579v74.722H230.681z"/>
<path d="M405.099,210.989c0-82.214-66.885-149.099-149.099-149.099s-149.099,66.885-149.099,149.099S173.786,360.088,256,360.088
	S405.099,293.203,405.099,210.989z M123.78,210.989c0-72.907,59.313-132.22,132.22-132.22s132.22,59.313,132.22,132.22
	S328.907,343.209,256,343.209S123.78,283.896,123.78,210.989z"/>
<path d="M331.956,216.615c0-41.883-34.073-75.956-75.956-75.956s-75.956,34.073-75.956,75.956s34.073,75.956,75.956,75.956
	S331.956,258.498,331.956,216.615z M196.923,216.615c0-32.576,26.502-59.077,59.077-59.077s59.077,26.501,59.077,59.077
	S288.574,275.692,256,275.692S196.923,249.191,196.923,216.615z"/>
</svg>