<?xml version="1.0" standalone="no"?>
<!DOCTYPE svg PUBLIC "-//W3C//DTD SVG 20010904//EN"
 "http://www.w3.org/TR/2001/REC-SVG-20010904/DTD/svg10.dtd">
<svg version="1.0" xmlns="http://www.w3.org/2000/svg"
 width="1920.000000pt" height="1195.000000pt" viewBox="0 0 1920.000000 1195.000000"
 preserveAspectRatio="xMidYMid meet">

<g transform="translate(0.000000,1195.000000) scale(0.100000,-0.100000)"
fill="#000000" stroke="none">
<path d="M0 5975 l0 -5975 9600 0 9600 0 0 5975 0 5975 -9600 0 -9600 0 0
-5975z m11685 1274 c41 -19 33 -25 -29 -20 -29 3 -75 29 -76 43 0 11 59 -3
105 -23z m55 -41 c0 -16 -31 -48 -47 -48 -19 0 -16 10 9 37 24 25 38 30 38 11z
m-2407 -48 c3 -13 0 -20 -9 -20 -8 0 -14 9 -14 20 0 11 4 20 9 20 5 0 11 -9
14 -20z m2522 10 c3 -5 1 -10 -4 -10 -6 0 -11 5 -11 10 0 6 2 10 4 10 3 0 8
-4 11 -10z m25 -35 c0 -8 -4 -15 -9 -15 -5 0 -14 7 -21 15 -10 13 -9 15 9 15
12 0 21 -6 21 -15z m909 -29 c9 -11 9 -15 -1 -18 -10 -4 -10 -8 1 -21 9 -12
30 -17 70 -18 31 -1 67 -4 81 -8 24 -7 24 -7 -9 -14 l-34 -7 28 -26 c21 -19
26 -32 23 -55 -3 -16 -1 -29 4 -29 4 0 8 5 8 11 0 8 9 9 28 4 15 -4 50 -8 77
-9 28 0 52 -5 54 -11 1 -6 -10 -9 -27 -7 -18 2 -36 -3 -46 -13 -19 -19 -60
-15 -123 12 -21 9 -41 16 -44 15 -4 -1 -5 6 -3 16 3 10 -10 32 -29 53 -39 42
-123 84 -130 66 -2 -7 -2 -2 0 11 4 25 32 60 49 61 6 1 17 -5 23 -13z m-667
-38 c-16 -16 -37 4 -28 28 6 16 8 16 23 1 13 -13 15 -19 5 -29z m555 10 c-3
-8 -6 -5 -6 6 -1 11 2 17 5 13 3 -3 4 -12 1 -19z m-472 -41 c17 -13 17 -15 -6
-30 -33 -24 -39 -21 -39 13 0 33 15 38 45 17z m-2731 -62 c7 -19 20 -19 39 -1
13 13 15 10 20 -21 7 -43 9 -40 -24 -48 -21 -5 -27 -2 -31 13 -6 22 -48 50
-48 32 0 -5 -4 -10 -10 -10 -14 0 -13 23 2 38 17 17 45 15 52 -3z m3079 8 c-7
-2 -19 -2 -25 0 -7 3 -2 5 12 5 14 0 19 -2 13 -5z m-416 -39 c-9 -9 -28 6 -21
18 4 6 10 6 17 -1 6 -6 8 -13 4 -17z m153 -49 c0 -8 -7 -15 -15 -15 -8 0 -15
7 -15 15 0 8 7 15 15 15 8 0 15 -7 15 -15z m-2886 -50 c3 -10 -1 -15 -13 -15
-10 0 -21 7 -25 15 -3 10 1 15 13 15 10 0 21 -7 25 -15z m3766 -9 c0 -2 -16
-6 -35 -8 -19 -2 -35 0 -35 4 0 4 16 8 35 8 19 0 35 -2 35 -4z m-1036 -15 c3
-5 -1 -12 -10 -15 -20 -8 -29 -1 -19 13 8 13 22 14 29 2z m1310 -150 c11 -4
15 -10 9 -14 -5 -3 -19 0 -29 8 -20 15 -11 18 20 6z m-54 -87 c0 -8 -4 -12
-10 -9 -5 3 -10 10 -10 16 0 5 5 9 10 9 6 0 10 -7 10 -16z m-265 -4 c-3 -5
-12 -10 -20 -10 -8 0 -17 5 -20 10 -4 6 5 10 20 10 15 0 24 -4 20 -10z m370
-60 c3 -5 -1 -10 -10 -10 -9 0 -13 5 -10 10 3 6 8 10 10 10 2 0 7 -4 10 -10z
m-140 -40 c3 -5 -1 -10 -10 -10 -9 0 -13 5 -10 10 3 6 8 10 10 10 2 0 7 -4 10
-10z m45 -41 c0 -6 -4 -7 -10 -4 -5 3 -10 11 -10 16 0 6 5 7 10 4 6 -3 10 -11
10 -16z m25 -59 c-3 -5 -13 -10 -21 -10 -8 0 -12 5 -9 10 3 6 13 10 21 10 8 0
12 -4 9 -10z m40 0 c-3 -5 -10 -10 -16 -10 -5 0 -9 5 -9 10 0 6 7 10 16 10 8
0 12 -4 9 -10z m126 -33 c-16 -16 -25 -1 -10 16 8 8 16 11 18 5 2 -5 -2 -15
-8 -21z m57 -75 c5 -17 -43 -15 -57 1 -6 8 -8 16 -5 19 9 9 57 -7 62 -20z
m188 -79 c-11 -11 -17 4 -9 23 7 18 8 18 11 1 2 -10 1 -21 -2 -24z m-183 7 c3
-11 2 -22 -2 -24 -11 -7 -43 22 -36 33 10 18 32 12 38 -9z m236 -66 c11 -3 11
-8 3 -16 -8 -8 -19 -8 -41 2 -54 22 -23 33 38 14z m9 -88 c3 -13 -1 -17 -14
-14 -11 2 -20 11 -22 22 -3 13 1 17 14 14 11 -2 20 -11 22 -22z m136 -82 c24
-9 19 -19 -9 -19 -14 0 -25 6 -25 13 0 13 10 15 34 6z m483 -210 c3 -9 -3 -23
-16 -35 l-21 -20 0 36 c0 37 25 50 37 19z m163 -12 c0 -5 -5 -13 -11 -19 -9
-9 -8 -20 1 -45 22 -62 22 -76 -2 -84 -13 -4 -24 -2 -26 5 -2 6 -7 9 -12 6 -4
-3 -13 8 -18 25 -7 18 -7 32 -1 35 17 11 9 34 -12 37 -21 3 -20 4 9 36 26 28
34 32 52 22 11 -6 20 -14 20 -18z m-390 -161 c0 -12 -29 -23 -41 -15 -18 10
-9 24 16 24 14 0 25 -4 25 -9z m-2810 -275 c0 -3 -4 -8 -10 -11 -5 -3 -10 -1
-10 4 0 6 5 11 10 11 6 0 10 -2 10 -4z m-3890 -26 c0 -5 -5 -10 -11 -10 -5 0
-7 5 -4 10 3 6 8 10 11 10 2 0 4 -4 4 -10z m2070 -34 c0 -3 -4 -8 -10 -11 -5
-3 -10 -1 -10 4 0 6 5 11 10 11 6 0 10 -2 10 -4z m-2205 -16 c3 -5 1 -10 -4
-10 -6 0 -11 5 -11 10 0 6 2 10 4 10 3 0 8 -4 11 -10z m205 0 c0 -5 -2 -10 -4
-10 -3 0 -8 5 -11 10 -3 6 -1 10 4 10 6 0 11 -4 11 -10z m1960 6 c0 -3 -4 -8
-10 -11 -5 -3 -10 -1 -10 4 0 6 5 11 10 11 6 0 10 -2 10 -4z m2310 -13 c0 -14
-2 -15 -9 -5 -6 11 -10 10 -15 -4 -3 -9 -9 -14 -13 -11 -7 8 15 37 28 37 5 0
9 -8 9 -17z m-2446 -8 c-4 -8 -8 -15 -10 -15 -2 0 -4 7 -4 15 0 8 4 15 10 15
5 0 7 -7 4 -15z m66 -10 c0 -14 -2 -25 -4 -25 -2 0 -6 11 -8 25 -3 14 -1 25 3
25 5 0 9 -11 9 -25z m-2250 -16 c0 -11 -11 -11 -29 0 -7 5 -10 14 -6 20 5 9
10 9 21 0 8 -6 14 -15 14 -20z m2360 21 c0 -5 -2 -10 -4 -10 -3 0 -8 5 -11 10
-3 6 -1 10 4 10 6 0 11 -4 11 -10z m5243 -13 c31 0 57 -4 57 -8 0 -5 -6 -9
-13 -9 -8 0 -22 -9 -31 -19 -17 -18 -16 -21 6 -55 24 -37 33 -43 43 -26 3 6
29 10 56 10 28 0 59 5 69 10 25 14 40 -10 16 -24 -10 -6 -40 -26 -68 -44 -32
-20 -55 -29 -60 -24 -12 12 -137 -16 -156 -34 -18 -18 -38 -18 -45 0 -4 9 1
17 11 19 9 3 3 5 -15 6 -17 0 -38 -6 -47 -14 -17 -17 -52 -20 -61 -5 -3 6 -16
10 -28 10 -16 0 -18 -3 -9 -12 16 -16 15 -58 0 -58 -10 0 -10 -3 0 -9 22 -13
9 -45 -21 -56 -22 -7 -35 -6 -58 8 -40 22 -47 4 -23 -60 18 -49 44 -88 44 -65
0 7 5 12 10 12 20 0 10 -29 -12 -36 -28 -8 -118 -94 -118 -111 0 -19 44 -33
93 -32 23 1 54 -4 70 -10 15 -6 27 -8 27 -4 0 4 6 -2 14 -13 12 -16 29 -19
113 -21 54 -2 104 -5 112 -8 7 -3 22 6 32 19 11 14 34 27 52 31 17 3 42 11 55
17 16 9 28 8 46 -1 17 -10 29 -10 44 -2 33 18 92 14 92 -5 0 -14 8 -16 53 -10
84 11 442 16 377 6 -30 -5 -90 -10 -133 -11 -43 -2 -80 -6 -83 -11 -3 -4 -24
-7 -47 -8 -23 0 -60 -4 -82 -8 -30 -6 -47 -5 -68 7 -22 13 -33 13 -58 4 -26
-10 -34 -9 -46 2 -34 35 -161 5 -190 -43 -11 -18 -19 -20 -68 -15 -35 4 -55 2
-55 -5 0 -6 6 -12 13 -15 6 -2 -1 -4 -18 -4 -121 -2 -199 -9 -203 -21 -2 -6
-13 -12 -23 -12 -21 0 -68 -46 -69 -67 0 -7 8 -13 17 -13 10 0 41 -10 70 -22
l53 -22 23 22 c13 12 34 22 48 22 80 1 189 8 217 14 21 5 32 4 32 -3 0 -6 -5
-11 -12 -11 -6 0 -9 -2 -6 -5 3 -3 29 3 57 15 28 11 67 20 86 20 24 0 35 5 35
15 0 18 -1 18 41 3 l34 -12 -40 -18 c-22 -9 -34 -18 -27 -18 6 0 12 -4 12 -10
0 -14 -97 -13 -102 1 -2 6 -13 9 -23 6 -19 -5 -19 -5 3 -12 38 -12 25 -33 -28
-44 -28 -6 -60 -11 -71 -11 -11 0 -17 -4 -14 -10 3 -5 -1 -10 -9 -10 -9 0 -16
5 -16 10 0 6 -19 10 -42 9 -35 -1 -38 -2 -18 -8 l25 -7 -29 -6 c-16 -3 -41 -2
-55 2 -14 4 -71 1 -126 -6 -55 -7 -103 -13 -107 -14 -5 0 -8 -4 -8 -9 0 -4 28
-14 62 -21 34 -8 56 -16 49 -18 -11 -4 -11 -6 0 -13 23 -14 4 -20 -76 -26 -64
-5 -79 -9 -83 -25 -3 -12 -14 -18 -31 -18 -40 0 -102 -20 -96 -31 4 -5 17 -9
31 -9 32 0 66 -18 59 -31 -4 -5 -20 -9 -36 -9 -27 0 -29 -2 -19 -20 12 -22 18
-18 -87 -55 -29 -11 -53 -24 -53 -31 0 -14 -65 -38 -79 -30 -5 4 -29 0 -53 -9
-24 -8 -67 -15 -96 -15 -32 0 -63 -6 -78 -16 -22 -15 -24 -15 -18 0 5 14 -7
16 -115 16 -74 0 -121 -4 -121 -10 0 -5 -18 -10 -40 -10 -22 0 -40 -4 -40 -10
0 -5 -18 -10 -40 -10 -33 0 -40 3 -40 20 0 17 -7 20 -40 20 -29 0 -40 -4 -40
-15 0 -11 -11 -15 -40 -15 -29 0 -40 4 -40 15 0 11 -11 15 -40 15 -22 0 -40
-4 -40 -9 0 -5 -36 -12 -80 -16 -44 -4 -80 -11 -80 -16 0 -5 -54 -7 -120 -5
-111 3 -120 2 -120 -16 0 -17 -24 -18 -632 -19 -911 -1 -1371 2 -1381 8 -5 3
-105 9 -223 14 -211 8 -315 1 -322 -21 -2 -6 -25 -10 -51 -10 -49 0 -111 -16
-111 -29 0 -4 15 -15 33 -24 l32 -16 -36 0 c-29 -1 -46 -9 -75 -38 -21 -21
-37 -46 -35 -55 1 -10 -4 -18 -11 -18 -17 0 -23 -66 -7 -76 6 -3 14 -2 18 4 6
11 91 -6 91 -18 0 -8 -80 -31 -90 -25 -5 3 -11 1 -15 -5 -9 -15 -34 -12 -52 5
-12 12 -18 13 -30 4 -7 -7 -10 -15 -5 -18 5 -3 11 -13 14 -22 4 -11 15 -15 37
-11 37 5 41 -5 6 -18 -51 -20 -23 -28 83 -24 135 5 95 -13 -48 -22 -112 -6
-143 -12 -136 -23 8 -12 -21 -34 -36 -28 -8 4 -7 6 5 6 9 1 17 6 17 12 0 9
-23 10 -80 6 -45 -3 -83 -1 -86 4 -3 5 -10 7 -15 4 -5 -4 -9 -2 -9 3 0 14 52
21 168 23 96 2 102 3 102 23 0 12 -3 16 -8 10 -4 -5 -42 -11 -85 -11 -43 -1
-81 -4 -84 -7 -10 -10 -33 -7 -33 4 0 6 7 10 15 10 16 0 21 25 7 34 -5 3 -19
-5 -33 -17 -13 -12 -36 -23 -51 -25 l-28 -3 0 119 c0 120 16 196 57 275 8 16
12 31 9 35 -3 3 -6 1 -6 -5 0 -30 -242 -66 -285 -42 -37 21 -43 18 -33 -14 8
-28 12 -286 4 -294 -2 -2 -22 -7 -45 -11 -23 -4 -41 -11 -39 -17 3 -11 9 -11
51 0 21 5 27 4 27 -8 0 -21 -159 -35 -197 -18 -14 6 -33 9 -42 7 -9 -3 -43 1
-76 10 -33 9 -80 16 -105 15 -34 0 -40 2 -25 9 11 5 31 9 45 9 28 1 120 56
120 71 0 9 -14 14 -32 11 -5 0 -8 17 -8 39 0 29 -4 40 -15 40 -11 0 -15 11
-15 40 0 37 -2 40 -27 40 -26 1 -25 2 12 19 l40 18 -103 24 c-56 13 -98 25
-92 27 29 10 2 21 -62 26 -140 12 -218 12 -221 2 -2 -6 -4 4 -3 21 1 26 4 32
19 27 18 -6 24 11 7 21 -5 3 -10 11 -10 17 0 6 9 3 21 -8 16 -14 24 -16 38 -7
11 7 23 8 34 1 10 -5 21 -7 26 -3 5 3 12 1 16 -5 4 -6 11 -8 16 -4 5 3 16 0
24 -6 12 -10 22 -10 45 0 32 13 36 20 19 37 -7 7 -7 13 -1 17 13 8 42 -3 42
-15 0 -15 27 -10 34 6 3 8 14 15 25 15 10 0 22 7 25 16 9 24 -2 31 -17 11 -10
-14 -15 -14 -30 -2 -12 8 -14 15 -8 20 6 3 11 1 11 -5 0 -6 5 -8 10 -5 17 11
-8 34 -29 28 -10 -3 -22 0 -25 6 -4 7 1 11 13 11 11 0 23 5 26 10 3 6 1 10 -4
10 -6 0 -11 4 -11 9 0 4 11 6 25 3 14 -2 25 -9 25 -14 0 -6 7 -8 15 -4 9 3 39
-10 69 -31 48 -32 55 -41 61 -80 7 -47 7 -48 37 -32 15 8 31 7 64 -6 55 -21
82 -13 31 9 -21 9 -37 22 -36 29 2 7 -3 37 -10 68 -14 67 -9 162 10 186 13 15
11 16 -11 11 -27 -7 -76 17 -94 45 -8 13 -6 21 8 34 18 17 18 17 7 -5 -14 -26
-7 -42 16 -42 9 0 21 -8 28 -17 11 -15 15 -15 29 -4 9 8 14 21 11 32 -3 9 -1
20 4 23 6 4 6 18 1 38 -11 36 -6 48 20 48 10 0 22 4 25 10 3 6 -1 7 -9 4 -18
-7 -22 11 -5 22 7 4 19 -3 28 -15 16 -21 17 -21 18 -1 1 11 -2 20 -8 20 -5 0
-9 7 -9 15 0 19 -10 19 -24 -1 -7 -9 -18 -12 -29 -8 -20 7 -23 22 -4 20 22 -2
19 19 -5 26 -15 4 -17 6 -6 7 9 1 23 9 30 19 8 11 26 17 46 17 18 0 33 5 33
13 1 6 3 17 4 22 1 6 3 13 4 18 1 4 8 -6 16 -22 9 -16 13 -37 10 -48 -4 -10
-2 -18 4 -18 6 0 11 5 11 10 0 6 11 16 25 22 14 6 25 17 25 25 0 19 29 16 37
-3 3 -10 2 -29 -4 -45 -9 -22 -8 -26 3 -22 8 3 14 11 14 18 0 7 7 18 15 25 10
9 15 9 15 1 0 -16 94 -14 135 3 37 16 49 9 39 -21 -5 -15 -4 -15 5 -3 8 12 11
12 17 -3 3 -9 10 -17 15 -17 4 0 1 16 -7 35 -7 19 -14 41 -14 50 0 18 36 20
43 2 3 -7 23 -19 46 -26 23 -6 41 -17 41 -23 0 -6 11 -8 30 -5 22 5 36 0 58
-18 16 -13 32 -22 36 -18 3 3 6 -1 6 -10 0 -9 -4 -19 -10 -22 -5 -3 -10 -2
-10 4 0 6 -11 18 -24 27 -19 12 -29 13 -43 4 -16 -10 -15 -10 5 -5 22 6 31 -8
13 -20 -5 -3 -13 -20 -16 -38 -4 -17 -15 -41 -24 -51 -15 -18 -15 -18 9 -5 31
18 78 19 84 2 3 -7 1 -15 -5 -18 -5 -4 -7 -11 -4 -16 4 -5 2 -9 -4 -9 -6 0
-15 9 -21 20 -10 18 -40 18 -40 -1 0 -4 6 -6 14 -3 19 7 32 -16 15 -27 -7 -4
-10 -12 -5 -16 5 -4 11 -2 13 5 3 6 9 9 15 6 6 -4 5 -10 -3 -15 -11 -7 -10
-11 6 -23 12 -10 16 -19 10 -23 -14 -11 -17 -64 -4 -79 15 -19 15 -154 0 -163
-7 -5 -12 -12 -11 -17 1 -5 -16 -15 -37 -21 l-38 -13 45 6 c25 3 69 6 98 7 51
0 52 1 52 31 0 17 4 36 8 42 13 20 111 76 122 69 6 -3 13 0 16 9 3 8 14 14 25
13 14 -1 17 -6 13 -21 -5 -15 -2 -18 15 -13 11 3 23 1 26 -3 6 -10 -31 -24
-42 -17 -5 3 -14 -1 -20 -9 -8 -8 -9 -15 -3 -19 6 -3 10 -2 10 4 0 6 8 7 17 4
14 -6 14 -8 -5 -16 -18 -8 -27 -6 -45 11 -19 18 -24 19 -41 7 -11 -8 -16 -21
-13 -30 9 -23 27 -18 27 7 l0 22 16 -22 c8 -12 20 -22 26 -22 6 0 20 -8 31
-17 18 -17 19 -17 28 0 11 18 49 24 49 7 0 -5 -4 -10 -10 -10 -5 0 -10 -6 -10
-14 0 -20 59 -39 76 -25 7 6 19 7 25 3 9 -5 10 0 6 17 -5 22 -5 22 7 6 10 -13
19 -15 37 -9 15 6 30 5 41 -1 13 -8 21 -7 35 5 20 17 62 33 77 29 5 -1 12 3
16 8 7 12 100 32 112 25 5 -3 8 -1 8 5 0 5 -4 13 -10 16 -17 10 -11 28 7 21 9
-4 20 -1 24 6 6 10 12 8 23 -7 14 -19 15 -19 40 8 14 15 30 27 36 27 5 0 10 5
10 11 0 8 4 8 14 0 7 -6 32 -13 55 -15 34 -3 41 0 41 15 0 13 7 17 28 15 15
-1 34 4 44 11 11 10 18 11 23 4 9 -16 25 -13 25 4 0 11 7 14 24 9 16 -4 25 -1
29 11 6 14 9 14 32 -1 24 -16 25 -16 19 2 -4 11 -11 24 -15 29 -5 6 15 11 54
13 53 2 67 7 112 42 29 22 58 40 66 40 10 -1 9 -5 -5 -15 -19 -15 -34 -85 -18
-85 6 0 8 9 5 20 -3 11 -1 20 5 20 5 0 12 -10 15 -22 5 -18 8 -19 21 -8 9 7
16 22 16 33 0 20 1 20 27 -5 27 -27 26 -51 -1 -29 -11 9 -14 6 -18 -19 -3 -21
-1 -27 6 -20 14 14 46 13 46 -2 0 -9 4 -8 10 2 5 8 10 20 10 25 0 6 -5 3 -10
-5 -7 -11 -9 -5 -7 22 2 40 16 51 24 19 5 -18 28 -31 66 -36 18 -2 24 20 7 30
-6 4 -8 11 -5 16 4 5 2 9 -3 9 -5 0 -12 -10 -15 -22 -7 -26 -12 -23 -21 16 -6
24 -4 27 9 22 13 -5 16 0 15 22 -3 41 0 49 11 29 5 -9 8 -21 4 -26 -3 -5 4
-26 16 -46 15 -25 25 -33 33 -26 15 12 56 3 56 -13 0 -8 54 -10 192 -9 205 3
238 6 238 26 0 17 -37 40 -42 25 -2 -6 -4 6 -5 26 -1 20 3 36 8 36 5 0 9 -8 9
-17 0 -27 28 -51 55 -45 14 2 25 11 25 18 0 19 16 18 24 -1 10 -26 26 -16 26
17 l0 31 23 -21 c13 -12 26 -22 30 -22 14 0 6 24 -15 47 -21 23 -21 23 -1 23
14 0 24 -10 31 -30 8 -22 15 -28 27 -24 10 4 15 14 12 25 -6 21 -3 22 31 13
12 -4 22 -12 22 -19 0 -8 -8 -11 -20 -8 -14 4 -20 0 -20 -11 0 -9 -4 -16 -10
-16 -5 0 -10 -5 -10 -11 0 -6 8 -8 19 -4 11 3 23 1 26 -6 6 -8 9 -8 14 0 11
18 37 20 306 27 l253 7 7 -21 c5 -17 14 -22 41 -22 29 0 34 3 34 24 0 22 3 23
112 29 74 4 115 2 119 -5 4 -7 9 -7 13 1 4 6 23 11 42 11 19 0 34 5 34 10 0 6
18 10 39 10 22 0 41 3 44 8 2 4 2 1 1 -5 -3 -10 18 -13 76 -13 50 0 80 4 80
11 0 5 -5 7 -12 3 -6 -4 -3 5 8 19 14 19 28 26 52 27 22 0 32 5 32 15 0 8 -4
15 -9 15 -5 0 -11 20 -12 44 -3 34 -1 43 11 41 8 -2 42 -4 75 -4 l60 -1 -27
-25 c-18 -17 -39 -25 -63 -25 -24 0 -35 -4 -35 -15 0 -11 11 -15 41 -15 l41 0
-4 -40 c-3 -30 0 -40 11 -40 7 0 24 -11 37 -25 18 -20 33 -25 69 -25 38 0 45
-3 45 -20 0 -19 6 -20 83 -18 45 1 63 3 40 5 -29 3 -43 9 -43 19 0 11 23 14
125 14 77 0 125 4 125 10 0 6 16 10 35 10 24 0 35 5 35 15 0 10 11 15 35 15
19 0 35 3 35 8 0 4 3 17 6 28 5 20 2 21 -38 19 -23 -2 -60 -4 -80 -4 -27 -1
-38 -6 -38 -16 0 -11 -11 -15 -40 -15 -38 0 -40 2 -40 30 0 28 3 30 35 30 34
0 35 1 35 38 0 37 -1 39 -32 38 -24 -1 -34 4 -36 17 -3 13 3 17 25 17 31 0 53
16 53 37 0 7 -11 13 -25 13 -14 0 -25 5 -25 10 0 6 -9 10 -21 10 -19 0 -76 33
-89 51 -3 4 -19 11 -35 15 -65 16 -146 74 -103 74 7 0 19 9 26 20 7 11 19 20
26 20 18 0 46 27 46 45 0 8 -9 17 -20 20 -27 9 -29 65 -1 65 28 0 81 21 81 32
0 5 -8 7 -17 4 -20 -6 -51 9 -41 19 3 4 25 9 48 12 29 4 40 10 36 20 -8 20 15
65 31 59 7 -3 22 3 33 14 11 11 27 20 35 20 8 0 15 5 15 10 0 6 9 10 20 10 11
0 23 7 26 15 7 18 31 20 37 3 3 -9 11 -6 26 10 17 17 33 22 76 22 30 0 55 5
55 10 0 6 -18 10 -40 10 -22 0 -40 4 -40 9 0 6 35 10 78 9 87 -1 242 29 242
47 0 18 51 33 90 27 19 -3 61 -5 93 -5z m-7168 -35 c3 -9 0 -10 -14 -3 -10 6
-21 17 -24 26 -5 12 -3 13 13 3 11 -7 22 -18 25 -26z m2114 -7 c0 -5 -4 -3 -9
5 -5 8 -9 22 -9 30 0 16 17 -16 18 -35z m1631 36 c0 -5 -7 -11 -14 -14 -10 -4
-13 -1 -9 9 6 15 23 19 23 5z m-1855 -11 c3 -5 1 -10 -4 -10 -6 0 -11 5 -11
10 0 6 2 10 4 10 3 0 8 -4 11 -10z m-2270 -10 c-3 -5 -10 -10 -16 -10 -5 0 -9
5 -9 10 0 6 7 10 16 10 8 0 12 -4 9 -10z m2240 -12 c6 -4 2 -8 -7 -8 -10 0
-18 7 -18 17 0 9 3 12 8 7 4 -5 12 -12 17 -16z m65 12 c0 -5 -2 -10 -4 -10 -3
0 -8 5 -11 10 -3 6 -1 10 4 10 6 0 11 -4 11 -10z m-2435 -28 c-3 -3 -11 0 -18
7 -9 10 -8 11 6 5 10 -3 15 -9 12 -12z m2189 2 c4 -10 1 -14 -6 -12 -15 5 -23
28 -10 28 5 0 13 -7 16 -16z m970 1 c-4 -8 -10 -12 -15 -9 -11 6 -2 24 11 24
5 0 7 -7 4 -15z m-2088 -10 c17 -16 14 -18 -10 -9 -9 3 -16 10 -16 15 0 13 9
11 26 -6z m1439 -4 c-3 -6 -11 -11 -17 -11 -6 0 -6 6 2 15 14 17 26 13 15 -4z
m76 -4 c-13 -13 -26 -3 -16 12 3 6 11 8 17 5 6 -4 6 -10 -1 -17z m409 19 c0
-3 -4 -8 -10 -11 -5 -3 -10 -1 -10 4 0 6 5 11 10 11 6 0 10 -2 10 -4z m-2385
-16 c-3 -5 -11 -10 -16 -10 -6 0 -7 5 -4 10 3 6 11 10 16 10 6 0 7 -4 4 -10z
m3529 -11 c-6 -11 -24 -2 -24 11 0 5 7 7 15 4 8 -4 12 -10 9 -15z m-5119 1 c3
-6 -1 -7 -9 -4 -18 7 -21 14 -7 14 6 0 13 -4 16 -10z m1655 0 c0 -5 -2 -10 -4
-10 -3 0 -8 5 -11 10 -3 6 -1 10 4 10 6 0 11 -4 11 -10z m920 0 c0 -5 -5 -10
-11 -10 -5 0 -7 5 -4 10 3 6 8 10 11 10 2 0 4 -4 4 -10z m660 -16 c0 -8 -4
-12 -10 -9 -5 3 -10 13 -10 21 0 8 5 12 10 9 6 -3 10 -13 10 -21z m520 22 c0
-2 -7 -7 -16 -10 -8 -3 -12 -2 -9 4 6 10 25 14 25 6z m1840 -6 c0 -5 -5 -10
-11 -10 -5 0 -7 5 -4 10 3 6 8 10 11 10 2 0 4 -4 4 -10z m-4210 -10 c0 -5 -4
-10 -10 -10 -5 0 -10 5 -10 10 0 6 5 10 10 10 6 0 10 -4 10 -10z m215 -9 c-3
-6 -11 -8 -17 -5 -6 4 -5 9 3 15 16 10 23 4 14 -10z m3620 9 c3 -5 1 -10 -4
-10 -6 0 -11 5 -11 10 0 6 2 10 4 10 3 0 8 -4 11 -10z m-4095 -16 c0 -8 -5
-12 -10 -9 -6 4 -8 11 -5 16 9 14 15 11 15 -7z m505 6 c3 -5 1 -10 -4 -10 -6
0 -11 5 -11 10 0 6 2 10 4 10 3 0 8 -4 11 -10z m1155 -12 c0 -18 -2 -20 -9 -8
-6 8 -7 18 -5 22 9 14 14 9 14 -14z m1370 12 c0 -5 -4 -10 -10 -10 -5 0 -10 5
-10 10 0 6 5 10 10 10 6 0 10 -4 10 -10z m280 6 c0 -3 -4 -8 -10 -11 -5 -3
-10 -1 -10 4 0 6 5 11 10 11 6 0 10 -2 10 -4z m242 -38 c-6 -6 -7 0 -4 19 5
21 7 23 10 9 2 -10 0 -22 -6 -28z m498 32 c0 -5 -5 -10 -11 -10 -5 0 -7 5 -4
10 3 6 8 10 11 10 2 0 4 -4 4 -10z m-3680 -16 c0 -8 -5 -12 -10 -9 -6 4 -8 11
-5 16 9 14 15 11 15 -7z m1641 -14 c6 0 7 -5 4 -11 -5 -6 -12 -4 -20 8 -7 10
-10 22 -7 28 4 5 8 2 10 -7 2 -10 8 -18 13 -18z m2124 20 c3 -5 1 -10 -4 -10
-6 0 -11 5 -11 10 0 6 2 10 4 10 3 0 8 -4 11 -10z m-5215 -15 c0 -8 -2 -15 -4
-15 -2 0 -6 7 -10 15 -3 8 -1 15 4 15 6 0 10 -7 10 -15z m1495 5 c3 -5 1 -10
-4 -10 -6 0 -11 5 -11 10 0 6 2 10 4 10 3 0 8 -4 11 -10z m-85 -10 c0 -5 -5
-10 -11 -10 -5 0 -7 5 -4 10 3 6 8 10 11 10 2 0 4 -4 4 -10z m3365 0 c-3 -5
-11 -10 -16 -10 -6 0 -7 5 -4 10 3 6 11 10 16 10 6 0 7 -4 4 -10z m-3330 -19
c3 -5 1 -12 -5 -16 -5 -3 -10 1 -10 9 0 18 6 21 15 7z m545 -1 c0 -5 -2 -10
-4 -10 -3 0 -8 5 -11 10 -3 6 -1 10 4 10 6 0 11 -4 11 -10z m1989 -4 c10 -12
8 -13 -8 -9 -12 3 -18 9 -15 14 7 12 10 11 23 -5z m701 4 c0 -5 -5 -10 -11
-10 -5 0 -7 5 -4 10 3 6 8 10 11 10 2 0 4 -4 4 -10z m-3190 -10 c0 -5 -4 -10
-10 -10 -5 0 -10 5 -10 10 0 6 5 10 10 10 6 0 10 -4 10 -10z m370 0 c0 -5 -2
-10 -4 -10 -3 0 -8 5 -11 10 -3 6 -1 10 4 10 6 0 11 -4 11 -10z m1525 -9 c-3
-6 -11 -11 -16 -11 -5 0 -4 6 3 14 14 16 24 13 13 -3z m-3405 5 c0 -2 -7 -7
-16 -10 -8 -3 -12 -2 -9 4 6 10 25 14 25 6z m3140 -6 c0 -5 -2 -10 -4 -10 -3
0 -8 5 -11 10 -3 6 -1 10 4 10 6 0 11 -4 11 -10z m670 -16 c0 -8 -4 -14 -10
-14 -5 0 -10 9 -10 21 0 11 5 17 10 14 6 -3 10 -13 10 -21z m234 11 c-4 -8 -8
-15 -10 -15 -2 0 -4 7 -4 15 0 8 4 15 10 15 5 0 7 -7 4 -15z m-2184 -5 c0 -5
-2 -10 -4 -10 -3 0 -8 5 -11 10 -3 6 -1 10 4 10 6 0 11 -4 11 -10z m805 0 c-3
-5 -11 -10 -16 -10 -6 0 -7 5 -4 10 3 6 11 10 16 10 6 0 7 -4 4 -10z m1085 0
c0 -5 -4 -10 -10 -10 -5 0 -10 5 -10 10 0 6 5 10 10 10 6 0 10 -4 10 -10z
m-3080 -4 c0 -11 -19 -15 -25 -6 -3 5 1 10 9 10 9 0 16 -2 16 -4z m1947 -18
c-3 -8 -6 -5 -6 6 -1 11 2 17 5 13 3 -3 4 -12 1 -19z m246 2 c-3 -11 -9 -20
-13 -20 -5 0 -6 9 -3 20 3 11 9 20 13 20 5 0 6 -9 3 -20z m562 11 c3 -5 1 -12
-5 -16 -5 -3 -10 1 -10 9 0 18 6 21 15 7z m1465 5 c0 -3 -4 -8 -10 -11 -5 -3
-10 -1 -10 4 0 6 5 11 10 11 6 0 10 -2 10 -4z m22 -18 c-7 -7 -12 -8 -12 -2 0
14 12 26 19 19 2 -3 -1 -11 -7 -17z m38 12 c0 -5 -2 -10 -4 -10 -3 0 -8 5 -11
10 -3 6 -1 10 4 10 6 0 11 -4 11 -10z m-2050 -10 c0 -5 -5 -10 -11 -10 -5 0
-7 5 -4 10 3 6 8 10 11 10 2 0 4 -4 4 -10z m1894 -21 c-9 -11 -19 -17 -21 -15
-8 7 21 45 30 39 4 -3 1 -14 -9 -24z m-4274 17 c0 -3 -4 -8 -10 -11 -5 -3 -10
-1 -10 4 0 6 5 11 10 11 6 0 10 -2 10 -4z m1200 -6 c0 -5 -4 -10 -10 -10 -5 0
-10 5 -10 10 0 6 5 10 10 10 6 0 10 -4 10 -10z m60 0 c0 -5 -2 -10 -4 -10 -3
0 -8 5 -11 10 -3 6 -1 10 4 10 6 0 11 -4 11 -10z m-1300 -15 c0 -8 -4 -15 -10
-15 -5 0 -7 7 -4 15 4 8 8 15 10 15 2 0 4 -7 4 -15z m1710 5 c0 -5 -2 -10 -4
-10 -3 0 -8 5 -11 10 -3 6 -1 10 4 10 6 0 11 -4 11 -10z m100 -25 c-13 -25
-30 -33 -30 -15 0 6 -7 10 -15 10 -8 0 -15 5 -15 10 0 7 6 7 20 0 15 -8 21 -6
30 11 7 11 14 18 17 15 4 -3 0 -17 -7 -31z m1262 13 c-7 -7 -12 -8 -12 -2 0
14 12 26 19 19 2 -3 -1 -11 -7 -17z m443 12 c-3 -5 -11 -10 -16 -10 -6 0 -7 5
-4 10 3 6 11 10 16 10 6 0 7 -4 4 -10z m420 -10 c-10 -11 -20 -18 -23 -15 -7
6 18 35 31 35 5 0 2 -9 -8 -20z m-2535 -26 c0 -3 -7 -1 -15 6 -8 7 -15 17 -15
22 0 5 7 3 15 -6 8 -8 15 -18 15 -22z m1499 10 c26 -32 26 -43 4 -60 -14 -10
-15 -12 -3 -11 8 2 21 6 28 10 8 6 12 2 12 -10 0 -20 -33 -25 -57 -10 -7 5
-17 6 -22 3 -5 -3 -11 1 -15 9 -8 21 -28 19 -54 -6 -12 -11 -27 -17 -33 -13
-8 4 -7 9 2 15 11 7 11 11 2 17 -8 5 -9 13 -3 22 6 8 10 10 10 4 0 -7 7 -15
16 -18 12 -4 15 -2 10 9 -4 11 1 15 19 15 14 0 25 -6 25 -13 0 -9 11 -12 35
-9 34 4 34 4 18 29 -9 13 -22 22 -29 19 -15 -6 -19 6 -7 17 11 12 21 8 42 -19z
m241 16 c0 -5 -6 -10 -14 -10 -8 0 -16 -6 -19 -12 -2 -7 -8 -10 -12 -5 -5 4 0
14 11 22 23 17 34 19 34 5z m260 -12 c0 -5 -8 -7 -19 -3 -12 4 -21 0 -25 -12
-6 -15 -8 -15 -16 -3 -14 22 -12 33 5 27 8 -4 17 -2 20 3 7 11 35 2 35 -12z
m-3941 -9 c-22 -13 -31 -11 -17 5 7 8 17 12 22 9 4 -3 2 -9 -5 -14z m2257 -16
c-7 -7 -46 16 -46 28 0 5 11 2 25 -7 14 -9 24 -19 21 -21z m1083 16 c-16 -10
-23 -4 -14 10 3 6 11 8 17 5 6 -4 5 -9 -3 -15z m1191 17 c0 -3 -4 -8 -10 -11
-5 -3 -10 -1 -10 4 0 6 5 11 10 11 6 0 10 -2 10 -4z m-1485 -16 c-3 -5 -11
-10 -16 -10 -6 0 -7 5 -4 10 3 6 11 10 16 10 6 0 7 -4 4 -10z m70 1 c3 -5 1
-12 -5 -16 -5 -3 -10 1 -10 9 0 18 6 21 15 7z m60 -1 c3 -5 1 -10 -4 -10 -6 0
-11 5 -11 10 0 6 2 10 4 10 3 0 8 -4 11 -10z m617 -12 c-7 -7 -12 -8 -12 -2 0
14 12 26 19 19 2 -3 -1 -11 -7 -17z m588 -13 c0 -5 -5 -3 -10 5 -5 8 -10 20
-10 25 0 6 5 3 10 -5 5 -8 10 -19 10 -25z m-4435 15 c3 -6 -1 -7 -9 -4 -18 7
-21 14 -7 14 6 0 13 -4 16 -10z m2960 0 c3 -5 -1 -10 -9 -10 -9 0 -16 5 -16
10 0 6 4 10 9 10 6 0 13 -4 16 -10z m825 0 c0 -5 -5 -10 -11 -10 -5 0 -7 5 -4
10 3 6 8 10 11 10 2 0 4 -4 4 -10z m1090 0 c0 -5 -2 -10 -4 -10 -3 0 -8 5 -11
10 -3 6 -1 10 4 10 6 0 11 -4 11 -10z m-4920 -10 c0 -5 -5 -10 -11 -10 -5 0
-7 5 -4 10 3 6 8 10 11 10 2 0 4 -4 4 -10z m4210 0 c0 -5 -4 -10 -10 -10 -5 0
-10 5 -10 10 0 6 5 10 10 10 6 0 10 -4 10 -10z m507 -12 c-3 -8 -6 -5 -6 6 -1
11 2 17 5 13 3 -3 4 -12 1 -19z m304 5 c13 -16 12 -17 -3 -4 -10 7 -18 15 -18
17 0 8 8 3 21 -13z m37 -20 c-6 -8 -13 -11 -17 -8 -3 3 1 10 9 15 11 7 12 10
2 10 -7 0 -10 5 -6 11 4 8 9 7 15 -2 4 -8 3 -19 -3 -26z m162 33 c0 -3 -4 -8
-10 -11 -5 -3 -10 -1 -10 4 0 6 5 11 10 11 6 0 10 -2 10 -4z m6457 -2 c-3 -3
-12 -4 -19 -1 -8 3 -5 6 6 6 11 1 17 -2 13 -5z m-9607 -8 c0 -3 -4 -8 -10 -11
-5 -3 -10 -1 -10 4 0 6 5 11 10 11 6 0 10 -2 10 -4z m1090 -6 c0 -5 -4 -10
-10 -10 -5 0 -10 5 -10 10 0 6 5 10 10 10 6 0 10 -4 10 -10z m620 1 c0 -6 -4
-13 -10 -16 -5 -3 -10 1 -10 9 0 9 5 16 10 16 6 0 10 -4 10 -9z m734 -6 c3 -8
1 -15 -4 -15 -6 0 -10 7 -10 15 0 8 2 15 4 15 2 0 6 -7 10 -15z m360 -4 c-10
-10 -21 -17 -23 -15 -6 6 20 34 32 34 6 0 2 -8 -9 -19z m-3099 -1 c3 -5 2 -10
-4 -10 -5 0 -13 5 -16 10 -3 6 -2 10 4 10 5 0 13 -4 16 -10z m147 -8 c-17 -5
-15 -22 4 -22 8 0 12 -5 8 -11 -10 -17 -36 14 -28 34 3 9 11 14 17 10 8 -5 7
-8 -1 -11z m308 14 c0 -3 -4 -8 -10 -11 -5 -3 -10 -1 -10 4 0 6 5 11 10 11 6
0 10 -2 10 -4z m35 -6 c3 -5 1 -10 -4 -10 -6 0 -11 5 -11 10 0 6 2 10 4 10 3
0 8 -4 11 -10z m416 -27 c-10 -17 -10 -16 -11 3 0 23 13 41 18 25 2 -6 -1 -18
-7 -28z m4329 2 c0 -5 -5 -3 -10 5 -5 8 -10 20 -10 25 0 6 5 3 10 -5 5 -8 10
-19 10 -25z m-7034 -10 c-3 -8 -10 -15 -15 -15 -5 0 -4 11 2 25 12 25 23 16
13 -10z m2144 3 c0 -6 -7 -5 -15 2 -8 7 -15 17 -15 22 0 6 7 5 15 -2 8 -7 15
-17 15 -22z m347 10 c-3 -8 -6 -5 -6 6 -1 11 2 17 5 13 3 -3 4 -12 1 -19z
m1363 12 c0 -5 -5 -10 -11 -10 -5 0 -7 5 -4 10 3 6 8 10 11 10 2 0 4 -4 4 -10z
m775 -20 c-9 -16 -20 -30 -26 -30 -11 0 -4 15 19 43 22 25 25 21 7 -13z m225
10 c0 -5 -4 -10 -10 -10 -5 0 -10 5 -10 10 0 6 5 10 10 10 6 0 10 -4 10 -10z
m370 -6 c0 -2 -7 -4 -15 -4 -8 0 -15 4 -15 10 0 5 7 7 15 4 8 -4 15 -8 15 -10z
m-3460 2 c0 -3 -4 -8 -10 -11 -5 -3 -10 -1 -10 4 0 6 5 11 10 11 6 0 10 -2 10
-4z m420 -16 c0 -5 -4 -10 -10 -10 -5 0 -10 5 -10 10 0 6 5 10 10 10 6 0 10
-4 10 -10z m235 -38 c-6 -7 -34 29 -34 43 0 6 9 -1 20 -14 11 -13 17 -26 14
-29z m685 38 c0 -5 -4 -10 -10 -10 -5 0 -10 5 -10 10 0 6 5 10 10 10 6 0 10
-4 10 -10z m1300 0 c0 -5 -7 -10 -15 -10 -8 0 -15 -7 -15 -16 0 -8 -4 -12 -10
-9 -6 4 -5 13 3 25 12 21 37 27 37 10z m106 -17 c-10 -10 -19 5 -10 18 6 11 8
11 12 0 2 -7 1 -15 -2 -18z m54 17 c0 -5 -4 -10 -9 -10 -6 0 -13 5 -16 10 -3
6 1 10 9 10 9 0 16 -4 16 -10z m480 -5 c0 -8 -9 -15 -21 -15 -11 0 -17 5 -14
10 4 6 11 8 16 5 5 -4 9 -1 9 4 0 6 2 11 5 11 3 0 5 -7 5 -15z m-3225 -5 c-3
-5 -12 -7 -20 -3 -21 7 -19 13 6 13 11 0 18 -4 14 -10z m222 -12 c-3 -8 -6 -5
-6 6 -1 11 2 17 5 13 3 -3 4 -12 1 -19z m6533 12 c0 -5 -4 -10 -10 -10 -5 0
-10 5 -10 10 0 6 5 10 10 10 6 0 10 -4 10 -10z m-6090 -12 c0 -4 -7 -8 -15 -8
-8 0 -15 4 -15 8 0 5 7 9 15 9 8 0 15 -4 15 -9z m160 2 c0 -5 -4 -10 -10 -10
-5 0 -10 5 -10 10 0 6 5 10 10 10 6 0 10 -4 10 -10z m900 0 c0 -5 -2 -10 -4
-10 -3 0 -8 5 -11 10 -3 6 -1 10 4 10 6 0 11 -4 11 -10z m45 0 c3 -5 1 -10 -4
-10 -6 0 -11 5 -11 10 0 6 2 10 4 10 3 0 8 -4 11 -10z m-1579 -13 c4 -4 -2 -7
-14 -7 -12 0 -22 4 -22 9 0 10 26 9 36 -2z m514 3 c0 -5 -4 -10 -10 -10 -5 0
-10 5 -10 10 0 6 5 10 10 10 6 0 10 -4 10 -10z m622 -4 c4 3 16 -3 27 -13 12
-10 26 -19 31 -19 6 -1 12 -2 15 -3 8 -2 -22 -56 -38 -70 -12 -9 -18 -9 -30 4
-9 8 -22 15 -30 15 -13 0 -13 -4 -4 -25 7 -14 17 -25 23 -25 8 0 8 -10 0 -35
-6 -19 -17 -35 -24 -35 -7 0 -11 4 -7 9 3 6 -2 14 -11 19 -15 9 -15 10 5 17
15 5 19 10 12 18 -5 7 -9 16 -9 22 0 5 -5 11 -11 13 -6 2 -11 -3 -11 -12 0 -9
-6 -13 -15 -10 -11 5 -12 10 -2 27 17 30 29 38 51 31 14 -5 18 -2 13 9 -3 10
1 17 14 20 10 3 19 11 19 17 0 7 -7 10 -17 6 -9 -4 -20 -1 -25 6 -12 20 -9 32
5 19 8 -6 16 -8 19 -5z m564 -6 c9 0 12 -5 9 -10 -8 -13 -35 6 -34 24 0 7 2 6
6 -1 2 -7 11 -13 19 -13z m1184 8 c0 -6 -3 -8 -7 -5 -3 4 -12 2 -20 -4 -8 -8
-13 -8 -13 -1 0 10 15 19 33 21 4 1 7 -4 7 -11z m35 2 c3 -5 1 -10 -4 -10 -6
0 -11 5 -11 10 0 6 2 10 4 10 3 0 8 -4 11 -10z m265 0 c0 -5 -4 -10 -10 -10
-5 0 -10 5 -10 10 0 6 5 10 10 10 6 0 10 -4 10 -10z m-1702 -18 c2 -7 -2 -10
-12 -6 -9 3 -16 11 -16 16 0 13 23 5 28 -10z m1292 8 c0 -5 -5 -10 -11 -10 -5
0 -7 5 -4 10 3 6 8 10 11 10 2 0 4 -4 4 -10z m30 0 c0 -5 -5 -10 -11 -10 -5 0
-7 5 -4 10 3 6 8 10 11 10 2 0 4 -4 4 -10z m-3696 -15 c-7 -16 -24 -21 -24 -6
0 8 7 13 27 20 1 1 0 -6 -3 -14z m726 5 c0 -5 -4 -10 -9 -10 -6 0 -13 5 -16
10 -3 6 1 10 9 10 9 0 16 -4 16 -10z m304 4 c9 -3 16 -11 16 -16 0 -7 -5 -6
-13 1 -8 6 -17 8 -20 4 -4 -3 -7 -1 -7 5 0 14 2 14 24 6z m516 -4 c0 -5 -4
-10 -10 -10 -5 0 -10 5 -10 10 0 6 5 10 10 10 6 0 10 -4 10 -10z m1337 -22 l0
-28 -16 23 c-8 12 -19 25 -24 29 -6 3 1 5 15 5 20 -2 25 -7 25 -29z m731 -4
c-4 -3 -12 5 -18 18 -12 22 -12 22 6 6 10 -10 15 -20 12 -24z m-4778 22 c0 -3
-4 -8 -10 -11 -5 -3 -10 -1 -10 4 0 6 5 11 10 11 6 0 10 -2 10 -4z m24 -21
c-9 -14 -25 -25 -36 -25 -17 0 -15 3 9 25 36 32 48 32 27 0z m2906 15 c0 -5
-5 -10 -11 -10 -5 0 -7 5 -4 10 3 6 8 10 11 10 2 0 4 -4 4 -10z m1013 -7 c-3
-8 -13 -11 -24 -8 -22 7 -26 -13 -4 -21 24 -9 18 -24 -10 -24 -14 0 -29 8 -35
20 -13 24 -5 41 15 33 8 -3 15 -1 15 5 0 5 11 10 24 10 17 0 23 -5 19 -15z
m1021 -7 c-6 -16 -24 -23 -24 -8 0 10 22 33 27 28 2 -2 1 -11 -3 -20z m-3754
10 c0 -3 -4 -8 -10 -11 -5 -3 -10 -1 -10 4 0 6 5 11 10 11 6 0 10 -2 10 -4z
m1870 -6 c0 -5 -4 -10 -10 -10 -5 0 -10 5 -10 10 0 6 5 10 10 10 6 0 10 -4 10
-10z m40 -22 c0 -5 -7 -3 -15 6 -8 8 -15 18 -15 22 0 3 7 1 15 -6 8 -7 15 -17
15 -22z m660 23 c0 -5 -7 -12 -16 -15 -24 -9 -28 -7 -14 9 14 17 30 20 30 6z
m238 -11 c7 -11 10 -20 6 -20 -7 0 -34 27 -34 34 0 13 16 5 28 -14z m242 8 c0
-15 -21 -18 -35 -5 -12 13 -11 15 10 13 14 0 25 -4 25 -8z m1612 -2 c10 -7 15
-16 12 -19 -4 -3 -13 1 -22 9 -12 13 -16 13 -23 2 -7 -10 -9 -9 -9 5 0 20 18
22 42 3z m-3530 -18 c-7 -7 -12 -8 -12 -2 0 14 12 26 19 19 2 -3 -1 -11 -7
-17z m1230 14 c-7 -5 -10 -16 -6 -28 6 -18 6 -18 -11 -2 -19 18 -13 38 13 38
13 0 14 -2 4 -8z m432 -57 c-7 -17 -24 -20 -24 -4 0 6 -8 8 -19 4 -16 -5 -18
-2 -14 17 11 50 12 52 38 24 13 -15 22 -33 19 -41z m279 35 c-7 -28 -13 -25
-13 6 0 14 4 23 9 20 5 -3 7 -15 4 -26z m-2963 8 c0 -4 -9 -8 -19 -8 -10 0
-21 -7 -25 -15 -3 -8 -11 -15 -18 -14 -10 0 -10 2 0 6 6 2 12 9 12 14 0 15
-22 10 -39 -10 -10 -11 -23 -16 -34 -12 -15 6 -12 10 20 27 37 21 103 28 103
12z m848 -6 c6 -18 -15 -14 -22 4 -4 10 -1 14 6 12 6 -2 14 -10 16 -16z m722
-13 c0 -6 -25 -19 -35 -19 -1 0 -2 11 -1 24 1 19 4 21 19 12 9 -6 17 -14 17
-17z m1316 7 c-1 -28 -11 -26 -19 4 -3 12 0 20 8 20 7 0 12 -10 11 -24z
m-1141 -6 c-19 -21 -65 -28 -65 -10 0 6 10 10 23 10 12 0 29 5 37 10 23 15 25
12 5 -10z m285 4 c0 -14 -3 -14 -15 -4 -8 7 -15 14 -15 16 0 2 7 4 15 4 8 0
15 -7 15 -16z m145 -10 c16 -25 16 -25 -4 -14 -12 6 -21 17 -21 25 0 21 5 19
25 -11z m2435 10 c0 -2 -7 -4 -15 -4 -8 0 -15 4 -15 10 0 5 7 7 15 4 8 -4 15
-8 15 -10z m-4410 -4 c0 -5 -4 -10 -10 -10 -5 0 -10 5 -10 10 0 6 5 10 10 10
6 0 10 -4 10 -10z m3135 -17 c-9 -36 -10 -37 -32 -25 -17 10 -17 11 0 17 9 4
17 13 17 21 0 8 5 14 11 14 7 0 9 -10 4 -27z m190 17 c3 -5 1 -10 -4 -10 -6 0
-11 5 -11 10 0 6 2 10 4 10 3 0 8 -4 11 -10z m80 -30 c7 -24 7 -24 -9 -5 -8
11 -16 27 -16 35 0 20 16 1 25 -30z m85 30 c0 -5 -4 -10 -10 -10 -5 0 -10 5
-10 10 0 6 5 10 10 10 6 0 10 -4 10 -10z m960 2 c0 -5 -6 -16 -13 -26 -13 -17
-14 -18 -20 -2 -4 9 -3 15 2 12 5 -3 11 1 15 9 6 16 16 20 16 7z m1600 -2 c12
-8 11 -10 -7 -10 -13 0 -23 5 -23 10 0 13 11 13 30 0z m-3785 -10 c-3 -5 -11
-10 -16 -10 -6 0 -7 5 -4 10 3 6 11 10 16 10 6 0 7 -4 4 -10z m465 -5 c0 -8
-7 -15 -15 -15 -26 0 -18 20 13 29 1 1 2 -6 2 -14z m120 5 c0 -5 -5 -10 -11
-10 -5 0 -7 5 -4 10 3 6 8 10 11 10 2 0 4 -4 4 -10z m50 0 c0 -5 -5 -10 -11
-10 -5 0 -7 5 -4 10 3 6 8 10 11 10 2 0 4 -4 4 -10z m540 0 c0 -5 -4 -10 -10
-10 -5 0 -10 5 -10 10 0 6 5 10 10 10 6 0 10 -4 10 -10z m1090 -2 c0 -4 -7 -8
-15 -8 -8 0 -15 -4 -15 -10 0 -5 -4 -10 -9 -10 -5 0 -7 8 -4 18 4 17 43 26 43
10z m70 2 c0 -5 -2 -10 -4 -10 -3 0 -8 5 -11 10 -3 6 -1 10 4 10 6 0 11 -4 11
-10z m-4954 -14 c18 -19 18 -36 -1 -36 -8 0 -15 4 -15 9 0 5 -3 16 -6 25 -8
20 3 21 22 2z m954 4 c0 -5 -4 -10 -10 -10 -5 0 -10 5 -10 10 0 6 5 10 10 10
6 0 10 -4 10 -10z m350 -9 c0 -11 8 -21 18 -23 15 -3 14 -5 -4 -16 -20 -11
-22 -9 -26 23 -2 19 0 35 4 35 4 0 8 -9 8 -19z m930 3 c0 -8 -4 -12 -10 -9 -5
3 -10 10 -10 16 0 5 5 9 10 9 6 0 10 -7 10 -16z m1160 -5 c0 -5 -4 -9 -10 -9
-5 0 -10 7 -10 16 0 8 5 12 10 9 6 -3 10 -10 10 -16z m181 7 c28 -12 31 -16
17 -21 -10 -4 -18 -12 -18 -17 0 -6 7 -8 15 -4 8 3 15 1 15 -4 0 -6 -7 -10
-15 -10 -8 0 -15 -4 -15 -10 0 -5 -6 -10 -14 -10 -9 0 -15 15 -18 45 -2 25 -3
45 -2 45 1 0 17 -6 35 -14z m-4711 -11 c-11 -14 -1 -48 13 -46 27 4 39 -2 47
-24 10 -26 -5 -65 -24 -65 -6 0 -5 5 2 12 17 17 15 68 -3 69 -8 1 -21 2 -27 3
-7 0 -17 11 -23 24 -5 12 -15 22 -22 22 -27 0 -11 15 18 17 26 2 29 0 19 -12z
m980 11 c0 -3 -4 -8 -10 -11 -5 -3 -10 -1 -10 4 0 6 5 11 10 11 6 0 10 -2 10
-4z m96 -22 c2 -23 1 -23 -22 -6 -29 21 -30 27 -1 28 16 1 22 -4 23 -22z
m1104 17 c0 -6 -4 -13 -10 -16 -5 -3 -10 1 -10 9 0 9 5 16 10 16 6 0 10 -4 10
-9z m550 -1 c0 -5 -2 -10 -4 -10 -3 0 -8 5 -11 10 -3 6 -1 10 4 10 6 0 11 -4
11 -10z m2110 -5 c-7 -9 -15 -13 -17 -11 -7 7 7 26 19 26 6 0 6 -6 -2 -15z
m1283 -10 c-10 -7 -22 -11 -27 -8 -5 4 -1 12 9 19 10 7 22 11 27 8 5 -3 1 -12
-9 -19z m-3753 -30 c0 -33 -4 -45 -15 -45 -8 0 -15 5 -15 10 0 6 4 10 8 10 4
0 8 8 9 19 1 14 -3 17 -18 14 -11 -3 -19 0 -19 6 0 7 4 10 9 6 6 -3 16 1 23 9
18 21 18 21 18 -29z m166 18 c-10 -10 -19 5 -10 18 6 11 8 11 12 0 2 -7 1 -15
-2 -18z m1874 17 c0 -5 -4 -10 -10 -10 -5 0 -10 5 -10 10 0 6 5 10 10 10 6 0
10 -4 10 -10z m-3180 -10 c0 -5 -7 -7 -15 -4 -8 4 -15 8 -15 10 0 2 7 4 15 4
8 0 15 -4 15 -10z m1450 1 c0 -5 -7 -11 -15 -15 -15 -5 -20 5 -8 17 9 10 23 9
23 -2z m805 -1 c3 -5 1 -10 -4 -10 -6 0 -11 5 -11 10 0 6 2 10 4 10 3 0 8 -4
11 -10z m438 2 c4 9 6 7 6 -4 1 -9 7 -19 14 -21 7 -3 5 -6 -5 -6 -11 -1 -15
-6 -12 -16 4 -8 2 -15 -3 -15 -17 0 -33 24 -33 48 0 20 3 22 14 13 11 -9 15
-9 19 1z m1427 -2 c0 -5 -4 -10 -10 -10 -5 0 -10 5 -10 10 0 6 5 10 10 10 6 0
10 -4 10 -10z m450 0 c0 -5 -4 -10 -10 -10 -5 0 -10 5 -10 10 0 6 5 10 10 10
6 0 10 -4 10 -10z m-4845 -9 c10 -17 -9 -20 -30 -5 -18 14 -18 14 2 14 12 0
24 -4 28 -9z m3825 -11 c0 -30 -29 -70 -46 -63 -10 4 -12 0 -8 -11 3 -9 1 -16
-4 -16 -24 0 -21 20 8 51 16 19 30 39 30 46 0 7 5 13 10 13 6 0 10 -9 10 -20z
m-3510 -6 c0 -8 -4 -12 -10 -9 -5 3 -10 10 -10 16 0 5 5 9 10 9 6 0 10 -7 10
-16z m365 6 c3 -5 1 -10 -4 -10 -6 0 -11 5 -11 10 0 6 2 10 4 10 3 0 8 -4 11
-10z m81 -17 c-10 -10 -19 5 -10 18 6 11 8 11 12 0 2 -7 1 -15 -2 -18z m5845
11 c11 -14 10 -19 -9 -35 -19 -15 -28 -16 -48 -7 -13 6 -24 16 -24 23 0 7 -18
11 -50 10 -27 -1 -50 2 -50 6 0 5 35 10 78 12 42 1 80 4 83 5 4 1 13 -5 20
-14z m-5246 -64 c19 0 38 -27 25 -35 -5 -3 -10 1 -10 10 0 9 -5 13 -10 10 -13
-8 -49 34 -50 56 0 33 15 29 23 -5 5 -20 15 -36 22 -36z m2725 60 c0 -5 -5
-10 -11 -10 -5 0 -7 5 -4 10 3 6 8 10 11 10 2 0 4 -4 4 -10z m-4710 -11 c0 -6
9 -8 21 -4 15 5 19 4 15 -4 -11 -17 -56 -14 -56 4 0 8 5 15 10 15 6 0 10 -5
10 -11z m3750 2 c0 -12 -29 -35 -36 -28 -11 10 5 37 21 37 8 0 15 -4 15 -9z
m-740 -24 c10 -4 8 -6 -7 -6 -16 -1 -23 5 -23 17 0 10 3 13 8 6 4 -6 14 -14
22 -17z m475 4 c-4 -13 0 -20 15 -24 11 -3 20 -10 20 -16 0 -12 -48 -27 -57
-17 -4 3 3 6 15 6 12 0 22 5 22 10 0 6 -7 10 -15 10 -9 0 -15 9 -15 25 0 14 5
25 11 25 6 0 8 -8 4 -19z m775 9 c0 -5 -4 -10 -9 -10 -6 0 -13 5 -16 10 -3 6
1 10 9 10 9 0 16 -4 16 -10z m-1580 -10 c0 -5 -4 -10 -10 -10 -5 0 -10 5 -10
10 0 6 5 10 10 10 6 0 10 -4 10 -10z m835 0 c3 -5 1 -10 -4 -10 -6 0 -11 5
-11 10 0 6 2 10 4 10 3 0 8 -4 11 -10z m1510 0 c-3 -5 -11 -10 -16 -10 -6 0
-7 5 -4 10 3 6 11 10 16 10 6 0 7 -4 4 -10z m-45 -4 c0 -3 -4 -8 -10 -11 -5
-3 -10 -1 -10 4 0 6 5 11 10 11 6 0 10 -2 10 -4z m-3595 -17 c11 -17 2 -18
-19 -3 -17 12 -17 14 -4 14 9 0 20 -5 23 -11z m1519 -9 c-10 -4 -21 -6 -24 -3
-8 7 24 22 34 16 5 -4 1 -10 -10 -13z m986 10 c0 -5 -4 -10 -10 -10 -5 0 -10
5 -10 10 0 6 5 10 10 10 6 0 10 -4 10 -10z m-2455 -10 c-3 -5 -11 -10 -16 -10
-6 0 -7 5 -4 10 3 6 11 10 16 10 6 0 7 -4 4 -10z m955 0 c0 -5 -2 -10 -4 -10
-3 0 -8 5 -11 10 -3 6 -1 10 4 10 6 0 11 -4 11 -10z m290 6 c0 -3 -4 -8 -10
-11 -5 -3 -10 -1 -10 4 0 6 5 11 10 11 6 0 10 -2 10 -4z m384 -36 c-6 -5 -24
21 -24 34 0 6 6 1 14 -10 8 -10 12 -21 10 -24z m1213 34 c-3 -3 -12 -4 -19 -1
-8 3 -5 6 6 6 11 1 17 -2 13 -5z m-1247 -24 c0 -25 39 -48 50 -29 6 9 12 9 24
-4 21 -20 20 -24 -5 -37 -17 -9 -23 -8 -33 5 -11 15 -13 15 -25 1 -17 -20 -35
-20 -51 -1 -16 19 -5 34 12 17 16 -16 25 -15 32 4 4 12 2 15 -9 11 -17 -7 -30
9 -16 18 6 3 8 12 4 20 -3 8 0 15 6 15 6 0 11 -9 11 -20z m353 8 c2 -7 1 -23
-4 -35 -7 -19 -11 -20 -33 -10 -14 7 -26 15 -26 20 0 10 8 9 31 -4 18 -9 19
-7 13 15 -6 26 10 37 19 14z m524 -10 c-3 -8 -6 -5 -6 6 -1 11 2 17 5 13 3 -3
4 -12 1 -19z m2737 16 c9 -3 14 -10 11 -15 -7 -10 -35 0 -35 12 0 11 3 11 24
3z m-6874 -16 c0 -7 -12 -22 -27 -32 -27 -20 -25 -8 5 27 18 20 22 21 22 5z
m3207 -19 c-6 -10 -13 -15 -15 -9 -6 17 7 42 18 35 6 -4 5 -13 -3 -26z m568
21 c3 -5 1 -10 -4 -10 -6 0 -11 5 -11 10 0 6 2 10 4 10 3 0 8 -4 11 -10z m174
-4 c9 -10 6 -17 -13 -29 -23 -15 -36 -13 -36 5 0 4 10 8 23 9 12 0 16 3 10 6
-15 5 -18 23 -4 23 5 0 14 -6 20 -14z m521 -7 c0 -6 -4 -7 -10 -4 -5 3 -10 11
-10 16 0 6 5 7 10 4 6 -3 10 -11 10 -16z m-4140 -14 c0 -16 -6 -25 -15 -25 -8
0 -15 5 -15 10 0 6 5 10 10 10 6 0 10 7 10 15 0 8 2 15 5 15 3 0 5 -11 5 -25z
m84 -24 c-8 -8 -54 31 -48 40 4 7 15 2 29 -12 12 -13 21 -26 19 -28z m426 39
c-8 -5 -19 -10 -25 -10 -5 0 -3 5 5 10 8 5 20 10 25 10 6 0 3 -5 -5 -10z
m2093 -3 c4 3 7 1 7 -5 0 -14 -2 -14 -24 -6 -9 3 -16 11 -16 16 0 7 5 6 13 -1
8 -6 17 -8 20 -4z m717 -7 c-11 -20 -30 -28 -30 -12 0 11 22 32 32 32 5 0 4
-9 -2 -20z m950 10 c0 -5 -4 -10 -10 -10 -5 0 -10 5 -10 10 0 6 5 10 10 10 6
0 10 -4 10 -10z m5022 -2 c-14 -7 -26 -8 -32 -2 -5 5 4 10 23 11 30 1 31 1 9
-9z m-9382 -13 c0 -8 -4 -15 -10 -15 -5 0 -10 7 -10 15 0 8 5 15 10 15 6 0 10
-7 10 -15z m2160 5 c0 -5 -5 -10 -11 -10 -5 0 -7 5 -4 10 3 6 8 10 11 10 2 0
4 -4 4 -10z m745 0 c11 17 20 11 21 -15 1 -14 -2 -25 -8 -25 -5 0 -7 4 -3 9 3
5 1 12 -4 16 -5 3 -14 -2 -19 -11 -8 -14 -10 -12 -14 10 -4 20 -2 24 7 16 9
-8 15 -8 20 0z m-2961 -22 c9 15 26 16 26 2 0 -5 -5 -10 -10 -10 -6 0 -26 -18
-46 -40 -40 -44 -69 -50 -110 -24 -19 13 -22 20 -13 30 17 20 26 17 25 -8 -1
-17 6 -22 33 -25 30 -4 33 -2 28 16 -4 16 -1 20 17 18 18 -2 21 2 18 33 -2 32
-2 33 11 16 10 -13 16 -15 21 -8z m271 12 c3 -5 -1 -10 -9 -10 -9 0 -16 5 -16
10 0 6 4 10 9 10 6 0 13 -4 16 -10z m1820 0 c3 -5 -1 -10 -9 -10 -9 0 -16 5
-16 10 0 6 4 10 9 10 6 0 13 -4 16 -10z m1423 -10 c-12 -19 -38 -35 -38 -24 0
16 23 44 35 44 13 0 13 -3 3 -20z m-938 0 c0 -5 -5 -10 -11 -10 -5 0 -7 5 -4
10 3 6 8 10 11 10 2 0 4 -4 4 -10z m150 0 c0 -5 -4 -10 -10 -10 -5 0 -10 5
-10 10 0 6 5 10 10 10 6 0 10 -4 10 -10z m625 0 c3 -5 1 -10 -4 -10 -6 0 -11
5 -11 10 0 6 2 10 4 10 3 0 8 -4 11 -10z m-3245 -4 c0 -2 -7 -9 -15 -16 -12
-10 -15 -10 -15 4 0 9 7 16 15 16 8 0 15 -2 15 -4z m200 -11 c-7 -9 -15 -13
-17 -11 -7 7 7 26 19 26 6 0 6 -6 -2 -15z m2340 5 c0 -5 -2 -10 -4 -10 -3 0
-8 5 -11 10 -3 6 -1 10 4 10 6 0 11 -4 11 -10z m910 -11 c0 -5 -4 -9 -10 -9
-5 0 -10 7 -10 16 0 8 5 12 10 9 6 -3 10 -10 10 -16z m150 11 c0 -5 -4 -10
-10 -10 -5 0 -10 5 -10 10 0 6 5 10 10 10 6 0 10 -4 10 -10z m138 -26 c-24
-24 -44 -7 -22 17 12 13 21 16 28 9 7 -7 5 -15 -6 -26z m291 -8 c-11 -11 -59
-17 -59 -7 0 6 7 8 16 4 12 -4 14 0 8 23 l-6 29 23 -22 c12 -12 21 -24 18 -27z
m-1374 24 c-4 -6 -10 -8 -14 -5 -5 2 -16 -4 -25 -14 -16 -18 -16 -20 5 -35 28
-19 32 -51 8 -53 -12 -1 -16 3 -12 13 3 9 -2 14 -17 14 -16 0 -20 -4 -16 -16
4 -9 -10 -3 -33 15 -21 17 -41 28 -45 24 -3 -3 -6 -1 -6 6 0 8 8 11 20 8 11
-3 22 -1 25 4 3 4 12 6 20 2 8 -3 15 0 15 7 0 6 4 9 8 6 5 -3 16 4 25 15 17
19 53 27 42 9z m1015 1 c0 -5 -6 -11 -12 -14 -7 -2 -2 -8 13 -11 24 -7 50 -49
42 -72 -2 -6 -17 -8 -33 -6 -25 3 -29 1 -24 -12 4 -11 1 -16 -10 -16 -17 0
-13 18 12 58 13 21 13 25 -1 39 -13 13 -19 14 -31 3 -24 -19 -19 -4 6 20 23
21 38 26 38 11z m-3955 -11 c3 -5 -1 -10 -9 -10 -9 0 -16 5 -16 10 0 6 4 10 9
10 6 0 13 -4 16 -10z m3790 0 c3 -5 -1 -10 -10 -10 -9 0 -13 5 -10 10 3 6 8
10 10 10 2 0 7 -4 10 -10z m345 -9 c0 -11 -4 -23 -10 -26 -6 -4 -10 5 -10 19
0 14 5 26 10 26 6 0 10 -9 10 -19z m905 9 c3 -5 1 -10 -4 -10 -6 0 -11 5 -11
10 0 6 2 10 4 10 3 0 8 -4 11 -10z m440 0 c3 -5 2 -10 -4 -10 -5 0 -13 5 -16
10 -3 6 -2 10 4 10 5 0 13 -4 16 -10z m-4440 -10 c3 -5 1 -10 -4 -10 -6 0 -11
5 -11 10 0 6 2 10 4 10 3 0 8 -4 11 -10z m1518 -18 c-4 -18 -8 -20 -19 -11
-12 10 -11 14 3 24 22 16 24 15 16 -13z m167 18 c0 -5 -5 -10 -11 -10 -5 0 -7
5 -4 10 3 6 8 10 11 10 2 0 4 -4 4 -10z m50 0 c8 -5 11 -10 5 -10 -5 0 -17 5
-25 10 -8 5 -10 10 -5 10 6 0 17 -5 25 -10z m6170 0 c0 -5 10 -10 21 -10 36 0
4 -27 -41 -34 -22 -3 -40 -11 -40 -16 0 -5 -30 -24 -66 -41 -74 -36 -194 -53
-194 -27 0 18 61 58 88 58 13 0 25 7 28 15 4 8 14 15 23 15 9 0 29 7 45 15 15
8 41 15 57 15 15 0 31 5 34 10 3 6 15 10 26 10 10 0 19 -4 19 -10z m-7560 -10
c0 -5 -7 -10 -15 -10 -8 0 -15 -4 -15 -9 0 -5 -10 -11 -22 -14 -21 -6 -21 -4
5 19 30 25 47 31 47 14z m1564 -5 c-7 -17 -20 -20 -29 -6 -3 5 3 12 12 14 10
3 19 5 20 6 1 0 0 -6 -3 -14z m211 5 c3 -5 -1 -10 -9 -10 -9 0 -16 5 -16 10 0
6 4 10 9 10 6 0 13 -4 16 -10z m905 0 c0 -5 -7 -7 -15 -4 -8 4 -15 8 -15 10 0
2 7 4 15 4 8 0 15 -4 15 -10z m1355 -1 c11 -16 1 -19 -13 -3 -7 8 -8 14 -3 14
5 0 13 -5 16 -11z m90 1 c3 -5 1 -10 -4 -10 -6 0 -11 5 -11 10 0 6 2 10 4 10
3 0 8 -4 11 -10z m-5041 -9 c3 -5 -5 -11 -19 -13 -26 -5 -35 6 -12 15 19 8 25
8 31 -2z m846 5 c0 -2 -7 -7 -16 -10 -8 -3 -12 -2 -9 4 6 10 25 14 25 6z
m1747 -18 c-3 -8 -6 -5 -6 6 -1 11 2 17 5 13 3 -3 4 -12 1 -19z m643 6 c0 -8
-9 -14 -19 -14 -10 0 -21 6 -24 14 -4 9 2 14 19 14 14 0 24 -6 24 -14z m50 -5
c0 -5 -7 -9 -15 -9 -9 0 -12 6 -9 15 6 15 24 11 24 -6z m340 14 c0 -5 -5 -15
-10 -23 -8 -12 -10 -11 -10 8 0 12 5 22 10 22 6 0 10 -3 10 -7z m-2650 -7 c0
-2 -7 -9 -15 -16 -13 -11 -14 -10 -9 4 5 14 24 23 24 12z m1140 -6 c0 -5 -5
-10 -11 -10 -5 0 -7 5 -4 10 3 6 8 10 11 10 2 0 4 -4 4 -10z m-1187 -20 c-3
-11 -7 -20 -9 -20 -2 0 -4 9 -4 20 0 11 4 20 9 20 5 0 7 -9 4 -20z m1380 -11
c7 -1 17 -1 24 0 6 1 15 -4 19 -10 5 -9 2 -10 -10 -6 -14 5 -17 3 -12 -8 7
-20 -24 -20 -50 0 -16 12 -17 14 -2 15 10 0 15 7 13 18 -1 9 0 11 2 5 3 -7 10
-14 16 -14z m1017 16 c0 -8 -4 -15 -10 -15 -5 0 -10 7 -10 15 0 8 5 15 10 15
6 0 10 -7 10 -15z m135 5 c-3 -5 -10 -10 -16 -10 -5 0 -9 5 -9 10 0 6 7 10 16
10 8 0 12 -4 9 -10z m130 -10 c-3 -5 -15 -10 -26 -10 -11 0 -17 5 -14 10 3 6
15 10 26 10 11 0 17 -4 14 -10z m155 0 c0 -5 -4 -10 -10 -10 -5 0 -10 5 -10
10 0 6 5 10 10 10 6 0 10 -4 10 -10z m3818 3 c-10 -2 -26 -2 -35 0 -10 3 -2 5
17 5 19 0 27 -2 18 -5z m-3913 -22 c-3 -6 -15 -11 -26 -11 -10 0 -19 -4 -19
-9 0 -15 -31 -42 -41 -36 -11 7 -12 25 -1 24 22 -4 33 3 30 18 -2 12 6 19 27
23 34 7 40 6 30 -9z m652 -3 c-3 -8 -6 -5 -6 6 -1 11 2 17 5 13 3 -3 4 -12 1
-19z m-4336 -20 c-8 -22 -51 -45 -51 -28 0 5 9 11 19 15 13 4 17 12 14 25 -4
15 -2 19 10 14 11 -4 14 -12 8 -26z m408 1 c-22 -14 -33 -10 -19 6 7 8 17 12
22 9 6 -4 5 -10 -3 -15z m6618 5 c-3 -3 -12 -4 -19 -1 -8 3 -5 6 6 6 11 1 17
-2 13 -5z m-3137 -18 c0 -8 -4 -17 -9 -20 -10 -7 -23 19 -14 28 11 11 23 6 23
-8z m-340 0 c0 -3 -4 -8 -10 -11 -5 -3 -10 -1 -10 4 0 6 5 11 10 11 6 0 10 -2
10 -4z m4420 -17 c0 -5 -4 -9 -10 -9 -5 0 -10 7 -10 16 0 8 5 12 10 9 6 -3 10
-10 10 -16z m-5865 2 c3 -5 1 -12 -5 -16 -5 -3 -10 1 -10 9 0 18 6 21 15 7z
m254 -4 c14 3 21 -4 30 -29 9 -24 14 -29 20 -19 5 7 14 10 20 7 16 -10 13 10
-4 28 -9 8 -11 17 -6 21 5 3 12 1 15 -4 3 -5 24 -8 47 -7 39 2 40 1 33 -23 -3
-14 -7 -32 -7 -39 0 -7 -6 -11 -13 -8 -19 7 -26 -24 -8 -41 8 -8 13 -18 10
-20 -10 -10 -125 92 -120 106 2 8 -1 11 -10 8 -15 -6 -36 11 -35 28 0 6 2 5 5
-1 3 -7 13 -10 23 -7z m989 -34 c9 -7 12 -16 7 -20 -4 -5 -10 -2 -12 5 -3 6
-11 12 -19 12 -9 0 -12 -5 -8 -11 4 -7 1 -10 -7 -7 -13 5 -14 25 -3 58 4 12 7
11 16 -5 6 -11 17 -26 26 -32z m-2638 29 c0 -9 -60 -36 -66 -29 -3 3 7 12 23
21 32 17 43 19 43 8z m592 -19 c-14 -25 -2 -45 18 -33 28 18 35 9 11 -11 l-25
-20 -13 25 c-11 20 -11 30 -1 45 15 25 23 20 10 -6z m1244 -18 c-7 -18 -26
-20 -26 -2 0 18 24 41 28 27 2 -6 1 -17 -2 -25z m992 24 c11 6 25 11 31 11 19
0 12 -15 -11 -25 -13 -6 -22 -17 -20 -26 2 -13 -11 -23 -60 -47 -5 -2 -8 9 -8
25 0 19 3 24 9 14 5 -7 11 -9 14 -4 3 5 -3 14 -13 21 -14 9 -19 8 -24 -3 -9
-24 -26 -17 -26 9 0 22 3 24 35 20 24 -3 35 0 35 8 0 10 2 10 9 -1 6 -10 13
-11 29 -2z m742 1 c8 -5 12 -11 10 -14 -8 -7 -60 6 -60 15 0 12 31 11 50 -1z
m-3030 -10 c0 -9 -31 -30 -44 -30 -4 0 -1 9 6 20 13 21 38 27 38 10z m1390 0
c0 -5 -4 -10 -10 -10 -5 0 -10 5 -10 10 0 6 5 10 10 10 6 0 10 -4 10 -10z
m-900 -10 c0 -5 -6 -10 -14 -10 -8 0 -23 -3 -33 -6 -10 -3 -7 2 7 10 30 18 40
20 40 6z m4477 4 c-3 -3 -12 -4 -19 -1 -8 3 -5 6 6 6 11 1 17 -2 13 -5z
m-6235 -34 c17 -17 28 -33 25 -36 -5 -6 -28 15 -56 49 -22 28 -2 19 31 -13z
m3768 9 c0 -5 -4 -9 -10 -9 -5 0 -10 5 -10 11 0 5 -5 7 -12 3 -7 -4 -8 -3 -4
4 7 12 36 5 36 -9z m-4920 1 c0 -5 -18 -10 -40 -10 -22 0 -40 5 -40 10 0 6 18
10 40 10 22 0 40 -4 40 -10z m2360 -11 c0 -11 -4 -18 -10 -14 -5 3 -7 12 -3
20 7 21 13 19 13 -6z m80 0 c0 -11 -4 -18 -10 -14 -5 3 -7 12 -3 20 7 21 13
19 13 -6z m-393 5 c-3 -3 -12 -4 -19 -1 -8 3 -5 6 6 6 11 1 17 -2 13 -5z
m5223 2 c0 -3 -4 -8 -10 -11 -5 -3 -10 -1 -10 4 0 6 5 11 10 11 6 0 10 -2 10
-4z m-4875 -26 c-3 -5 -1 -11 5 -15 5 -3 10 -11 10 -17 0 -6 -9 -3 -19 6 -19
17 -18 52 0 40 5 -3 7 -9 4 -14z m1010 10 c3 -5 1 -10 -4 -10 -6 0 -11 5 -11
10 0 6 2 10 4 10 3 0 8 -4 11 -10z m325 0 c0 -5 -4 -10 -10 -10 -5 0 -10 5
-10 10 0 6 5 10 10 10 6 0 10 -4 10 -10z m1120 0 c-8 -5 -19 -10 -25 -10 -5 0
-3 5 5 10 8 5 20 10 25 10 6 0 3 -5 -5 -10z m2307 -12 c-3 -8 -6 -5 -6 6 -1
11 2 17 5 13 3 -3 4 -12 1 -19z m-5907 -31 c0 -5 -6 -4 -14 2 -7 6 -21 9 -30
5 -21 -8 -21 5 2 22 14 11 19 10 30 -3 6 -9 12 -21 12 -26z m1610 33 c0 -5 -2
-10 -4 -10 -3 0 -8 5 -11 10 -3 6 -1 10 4 10 6 0 11 -4 11 -10z m2825 0 c3 -5
-1 -10 -10 -10 -12 0 -15 -6 -10 -22 7 -22 6 -22 -11 -6 -14 14 -15 20 -4 32
14 18 26 20 35 6z m1349 -15 c20 -8 36 -17 36 -18 0 -2 -18 -3 -40 -2 -31 0
-40 4 -40 18 0 21 -1 21 44 2z m92 -12 c-10 -10 -19 5 -10 18 6 11 8 11 12 0
2 -7 1 -15 -2 -18z m-5989 -5 c-3 -8 -6 -5 -6 6 -1 11 2 17 5 13 3 -3 4 -12 1
-19z m1518 -24 c-17 -17 -17 -17 -11 4 6 17 3 22 -11 22 -15 0 -16 2 -3 10 10
6 19 5 29 -5 12 -12 11 -16 -4 -31z m-1335 14 c0 -16 -3 -19 -11 -11 -6 6 -19
9 -28 6 -12 -3 -11 -1 3 11 27 22 36 20 36 -6z m3470 12 c0 -5 -4 -10 -10 -10
-5 0 -10 5 -10 10 0 6 5 10 10 10 6 0 10 -4 10 -10z m40 0 c0 -5 -5 -10 -11
-10 -5 0 -7 5 -4 10 3 6 8 10 11 10 2 0 4 -4 4 -10z m1260 0 c0 -5 -7 -10 -16
-10 -8 0 -12 5 -9 10 3 6 10 10 16 10 5 0 9 -4 9 -10z m185 0 c8 -13 -5 -13
-25 0 -13 8 -13 10 2 10 9 0 20 -4 23 -10z m341 -17 c4 -16 12 -31 18 -35 8
-5 7 -8 -1 -8 -7 0 -19 13 -28 30 -18 34 -18 40 -5 40 5 0 13 -12 16 -27z
m-5139 -14 c-28 -21 -36 -49 -15 -49 6 0 9 -2 7 -5 -3 -2 -18 0 -35 4 -16 5
-22 10 -13 10 10 1 19 13 22 30 4 21 13 31 29 33 33 5 34 1 5 -23z m987 19
c-7 -11 7 -9 51 7 19 7 19 7 1 -7 -10 -8 -16 -20 -12 -26 9 -15 -6 -15 -39 0
-27 12 -32 24 -12 31 18 8 19 8 11 -5z m2766 2 c0 -5 -5 -10 -11 -10 -5 0 -7
5 -4 10 3 6 8 10 11 10 2 0 4 -4 4 -10z m1337 -5 c24 -25 7 -30 -18 -6 -13 12
-17 21 -10 21 7 0 19 -7 28 -15z m700 9 c-3 -3 -12 -4 -19 -1 -8 3 -5 6 6 6
11 1 17 -2 13 -5z m-5859 -30 c-4 -3 -24 -7 -45 -9 -21 -1 -28 -1 -16 2 12 2
27 11 34 19 8 10 15 12 22 5 6 -6 8 -13 5 -17z m312 11 c-7 -8 -17 -15 -22
-15 -6 0 -5 7 2 15 7 8 17 15 22 15 6 0 5 -7 -2 -15z m60 0 c0 -8 -7 -15 -15
-15 -9 0 -12 6 -9 15 4 8 10 15 15 15 5 0 9 -7 9 -15z m272 0 c-20 -15 -21
-18 -7 -39 14 -22 12 -36 -7 -36 -5 0 -7 4 -3 9 3 5 -1 16 -9 24 -13 13 -12
17 5 36 11 11 25 21 32 21 6 0 1 -7 -11 -15z m198 5 c0 -5 -7 -10 -15 -10 -8
0 -15 5 -15 10 0 6 7 10 15 10 8 0 15 -4 15 -10z m3580 6 c0 -3 -4 -8 -10 -11
-5 -3 -10 -1 -10 4 0 6 5 11 10 11 6 0 10 -2 10 -4z m217 -2 c-3 -3 -12 -4
-19 -1 -8 3 -5 6 6 6 11 1 17 -2 13 -5z m1793 -2 c0 -4 -18 -6 -40 -4 -22 2
-40 6 -40 8 0 2 18 4 40 4 22 0 40 -3 40 -8z m-4740 -12 c0 -5 -4 -10 -10 -10
-5 0 -10 5 -10 10 0 6 5 10 10 10 6 0 10 -4 10 -10z m-1245 -10 c-3 -5 -11
-10 -16 -10 -6 0 -7 5 -4 10 3 6 11 10 16 10 6 0 7 -4 4 -10z m305 -28 c-14
-47 -22 -62 -32 -62 -6 0 -3 11 6 25 9 14 16 31 15 38 -3 24 1 38 10 32 6 -3
6 -17 1 -33z m130 34 c0 -3 -4 -8 -10 -11 -5 -3 -10 -1 -10 4 0 6 5 11 10 11
6 0 10 -2 10 -4z m2310 -11 c0 -8 -4 -15 -10 -15 -5 0 -10 7 -10 15 0 8 5 15
10 15 6 0 10 -7 10 -15z m627 9 c-3 -3 -12 -4 -19 -1 -8 3 -5 6 6 6 11 1 17
-2 13 -5z m1063 -4 c-13 -8 -13 -11 2 -26 14 -15 19 -15 33 -4 13 11 21 11 36
2 11 -7 19 -8 19 -2 0 14 13 12 36 -4 17 -13 15 -15 -31 -15 -27 0 -64 -3 -81
-6 -20 -5 -34 -2 -41 7 -15 18 2 58 24 58 15 0 16 -2 3 -10z m200 -15 c14 -18
14 -19 -2 -7 -11 9 -18 10 -23 2 -8 -13 -35 -13 -35 0 0 6 9 10 20 10 11 0 20
5 20 12 0 6 1 9 3 7 1 -2 9 -13 17 -24z m-4830 0 c0 -8 -4 -15 -10 -15 -5 0
-10 7 -10 15 0 8 5 15 10 15 6 0 10 -7 10 -15z m4885 -13 c-7 -8 -35 7 -35 18
0 6 7 6 20 -2 10 -7 17 -14 15 -16z m-5031 3 c-4 -8 -13 -15 -21 -15 -13 0
-13 3 -3 15 7 8 16 15 21 15 5 0 6 -7 3 -15z m376 11 c0 -3 -4 -8 -10 -11 -5
-3 -10 -1 -10 4 0 6 5 11 10 11 6 0 10 -2 10 -4z m511 -35 c39 -31 59 -40 108
-45 52 -6 58 -9 54 -26 -3 -11 -12 -20 -20 -20 -8 0 -12 4 -9 9 7 10 -17 21
-47 21 -32 0 -96 33 -97 50 0 9 -8 3 -19 -13 -12 -19 -21 -25 -26 -17 -4 6 1
17 10 24 17 12 16 14 -6 34 -39 37 0 24 52 -17z m-841 9 c0 -13 -7 -20 -20
-20 -19 0 -19 1 -2 19 22 25 22 25 22 1z m250 10 c0 -5 -5 -10 -11 -10 -5 0
-7 5 -4 10 3 6 8 10 11 10 2 0 4 -4 4 -10z m-1890 -10 c0 -5 -18 -10 -40 -10
l-40 0 0 -40 c0 -38 2 -40 30 -40 l30 0 0 -79 c0 -76 -1 -81 -32 -112 l-32
-32 -111 7 c-60 3 -134 6 -163 6 -67 0 -102 31 -102 91 l0 39 -50 0 -50 0 0
40 0 40 40 0 40 0 0 40 0 40 80 0 c47 0 80 4 80 10 0 6 60 10 160 10 100 0
160 -4 160 -10z m1720 -10 c0 -5 -4 -10 -10 -10 -5 0 -10 5 -10 10 0 6 5 10
10 10 6 0 10 -4 10 -10z m550 1 c0 -6 -4 -13 -10 -16 -5 -3 -10 1 -10 9 0 9 5
16 10 16 6 0 10 -4 10 -9z m138 -61 c15 -1 15 -2 -1 -11 -14 -8 -21 -7 -30 5
-13 17 -61 11 -50 -7 3 -6 1 -7 -5 -3 -8 5 -1 18 21 40 l32 32 8 -28 c4 -17
15 -28 25 -28z m-88 35 c0 -8 -7 -15 -16 -15 -14 0 -14 3 -4 15 7 8 14 15 16
15 2 0 4 -7 4 -15z m2286 -42 c-10 -10 -19 5 -10 18 6 11 8 11 12 0 2 -7 1
-15 -2 -18z m-759 -5 c-3 -8 -6 -5 -6 6 -1 11 2 17 5 13 3 -3 4 -12 1 -19z
m1678 2 c3 -6 -1 -7 -9 -4 -18 7 -21 14 -7 14 6 0 13 -4 16 -10z m-2835 -13
c0 -7 -5 -18 -12 -25 -16 -16 1 -15 36 3 24 13 27 13 22 0 -6 -16 10 -30 19
-16 9 15 46 9 40 -7 -2 -7 0 -10 5 -7 19 12 60 15 60 5 0 -5 -8 -10 -19 -10
-10 0 -26 -11 -37 -24 -20 -28 -35 -26 -27 4 7 25 -22 27 -49 4 -16 -16 -18
-16 -24 0 -7 18 -34 22 -34 5 0 -6 -6 -9 -13 -6 -8 3 -20 1 -28 -5 -11 -8 -10
-9 4 -4 9 3 18 0 18 -7 2 -17 1 -20 -7 -41 -6 -17 -4 -18 22 -12 23 6 27 5 17
-5 -24 -25 -14 -36 30 -34 36 2 42 5 41 24 -1 26 1 26 28 1 16 -15 25 -17 35
-9 18 16 17 43 -2 35 -8 -3 -15 -1 -15 4 0 6 4 10 9 10 5 0 16 3 24 6 9 3 16
-3 20 -15 7 -29 27 -26 27 4 0 16 6 25 15 25 9 0 18 7 22 16 3 8 12 13 19 10
7 -3 18 3 23 12 6 10 11 12 11 5 0 -7 5 -13 11 -13 6 0 20 -11 31 -25 22 -28
48 -33 48 -10 0 8 5 15 10 15 6 0 10 -5 10 -11 0 -7 10 -9 27 -4 26 6 27 6 10
-13 -21 -23 -22 -36 -2 -28 8 3 15 1 15 -5 0 -6 7 -9 15 -5 21 8 65 -10 64
-26 0 -10 -2 -10 -6 0 -2 6 -14 12 -25 12 -16 0 -19 -6 -18 -37 1 -21 2 -44 1
-50 -1 -10 -121 -13 -568 -11 -313 1 -536 4 -498 8 l70 6 -50 6 c-27 3 -9 4
40 2 51 -2 79 0 65 5 l-25 7 23 15 c12 7 22 24 22 36 0 20 5 23 40 23 27 0 40
4 40 14 0 7 9 20 21 27 11 8 21 21 22 29 6 35 37 56 37 25 0 -9 9 -15 24 -15
14 0 28 -5 31 -10 4 -6 11 -8 16 -4 5 3 7 9 4 14 -3 4 -2 15 1 24 8 22 83 21
122 -1 27 -16 31 -16 46 -1 9 10 12 19 6 23 -5 3 -2 14 8 25 20 22 32 25 32 7z
m2247 -31 c-2 -6 -12 -13 -23 -15 -15 -3 -16 -1 -6 11 6 8 9 18 5 22 -4 4 1 4
10 0 10 -3 16 -12 14 -18z m-1383 -7 c-3 -6 0 -15 7 -20 11 -7 11 -9 -2 -9
-23 0 -30 11 -18 27 14 16 23 17 13 2z m1591 -18 c0 -14 -6 -26 -14 -29 -8 -3
-12 1 -9 9 3 8 1 22 -4 32 -8 15 -6 18 9 15 11 -2 18 -12 18 -27z m-177 7 c-2
-6 -10 -14 -16 -16 -7 -2 -10 2 -6 12 7 18 28 22 22 4z m4192 -4 c0 -2 -9 -4
-20 -4 -11 0 -20 4 -20 9 0 5 9 7 20 4 11 -3 20 -7 20 -9z m-7676 -9 c8 -8 26
-15 40 -15 15 0 30 -8 36 -19 5 -11 20 -23 32 -27 40 -12 45 -21 38 -69 -5
-35 -4 -45 7 -45 8 0 11 -4 8 -10 -3 -5 -34 -11 -68 -12 l-62 -2 75 -6 c41 -4
-139 -6 -400 -6 l-475 0 360 6 c198 4 361 8 363 9 1 0 2 6 2 11 0 7 -55 10
-157 8 l-158 -3 -3 43 c-3 42 -3 42 -43 42 -21 0 -39 5 -39 10 0 6 18 10 40
10 38 0 40 2 40 30 0 26 4 30 26 30 14 0 32 7 40 15 12 12 44 15 149 15 105 0
137 -3 149 -15z m1868 -20 c-4 -24 -16 -33 -25 -17 -7 11 12 54 22 48 4 -3 6
-17 3 -31z m174 -2 c-7 -7 -26 7 -26 19 0 6 6 6 15 -2 9 -7 13 -15 11 -17z
m1484 -3 c0 -18 -40 -45 -65 -45 -33 -1 -31 6 8 32 35 24 57 29 57 13z m43
-19 c3 -12 -1 -22 -11 -26 -20 -7 -22 -4 -15 23 7 27 19 28 26 3z m172 9 c3
-5 2 -10 -4 -10 -5 0 -13 5 -16 10 -3 6 -2 10 4 10 5 0 13 -4 16 -10z m-1735
-10 c0 -5 6 -10 13 -10 7 0 20 -8 29 -19 15 -17 14 -18 -8 -18 -23 0 -64 30
-64 47 0 6 7 10 15 10 8 0 15 -4 15 -10z m1600 0 c0 -5 -4 -10 -10 -10 -5 0
-10 5 -10 10 0 6 5 10 10 10 6 0 10 -4 10 -10z m-1825 -10 c-3 -5 -11 -10 -16
-10 -6 0 -7 5 -4 10 3 6 11 10 16 10 6 0 7 -4 4 -10z m180 -38 c-11 -11 -27
17 -20 35 6 16 8 16 16 -6 5 -13 7 -26 4 -29z m1697 36 c-9 -9 -15 -9 -24 0
-9 9 -7 12 12 12 19 0 21 -3 12 -12z m-1742 -8 c0 -5 -4 -10 -10 -10 -5 0 -10
5 -10 10 0 6 5 10 10 10 6 0 10 -4 10 -10z m-45 -10 c3 -5 -1 -10 -9 -10 -9 0
-16 5 -16 10 0 6 4 10 9 10 6 0 13 -4 16 -10z m-3697 -117 c-15 -2 -42 -2 -60
0 -18 2 -6 4 27 4 33 0 48 -2 33 -4z m245 0 c-13 -2 -33 -2 -45 0 -13 2 -3 4
22 4 25 0 35 -2 23 -4z m1200 0 c-13 -2 -33 -2 -45 0 -13 2 -3 4 22 4 25 0 35
-2 23 -4z m760 -10 c-35 -2 -91 -2 -125 0 -35 2 -7 3 62 3 69 0 97 -1 63 -3z
m-1873 -13 c-52 -4 -180 -7 -285 -7 -129 0 -163 3 -105 6 47 3 175 6 285 7
159 1 180 -1 105 -6z m-687 -7 c-79 -2 -207 -2 -285 0 -79 1 -15 3 142 3 157
0 221 -2 143 -3z m8777 -23 c0 -5 -18 -10 -40 -10 -22 0 -40 5 -40 10 0 6 18
10 40 10 22 0 40 -4 40 -10z m-4497 -407 c-13 -2 -33 -2 -45 0 -13 2 -3 4 22
4 25 0 35 -2 23 -4z m497 -6 c0 -15 -8 -16 -210 -22 -167 -4 -152 11 20 21 58
4 107 8 109 10 2 2 22 4 43 4 25 0 38 -5 38 -13z m280 -31 c0 -29 3 -34 20
-31 11 2 20 -1 20 -7 0 -13 230 -3 239 10 9 13 101 22 141 13 30 -6 32 -8 15
-15 -54 -24 -395 -46 -395 -27 0 6 -9 11 -20 11 -18 0 -20 -7 -20 -55 0 -52 1
-55 23 -51 60 13 139 17 133 7 -7 -10 -15 -12 -78 -13 -21 -1 -38 -5 -38 -10
0 -4 -9 -8 -21 -8 -15 0 -19 -5 -15 -15 3 -8 2 -15 -3 -15 -10 0 -21 98 -21
181 0 33 4 59 10 59 6 0 10 -15 10 -34z m860 20 c0 -3 -4 -8 -10 -11 -5 -3
-10 -1 -10 4 0 6 5 11 10 11 6 0 10 -2 10 -4z m-1520 -16 c0 -5 -14 -7 -32 -3
-46 8 -48 13 -5 13 21 0 37 -4 37 -10z m1280 6 c0 -3 -4 -8 -10 -11 -5 -3 -10
-1 -10 4 0 6 5 11 10 11 6 0 10 -2 10 -4z m-1400 -24 c0 -14 -11 -21 -26 -15
-8 3 -11 9 -8 14 7 11 34 12 34 1z m500 -9 c0 -14 -13 -17 -82 -13 -26 1 -52
-2 -59 -6 -6 -4 -26 -8 -43 -9 -17 -1 -42 -5 -56 -10 -22 -7 -22 -6 -9 8 9 8
24 17 35 20 10 3 -7 3 -38 0 -38 -4 -58 -2 -58 5 0 14 29 17 183 18 100 1 127
-2 127 -13z m820 13 c0 -11 -19 -15 -25 -6 -3 5 1 10 9 10 9 0 16 -2 16 -4z
m-1150 -16 c12 -8 11 -10 -7 -10 -12 0 -25 5 -28 10 -8 13 15 13 35 0z m1424
-22 c-6 -9 -74 -7 -74 2 0 4 18 7 39 6 22 0 37 -4 35 -8z m199 5 c-7 -2 -19
-2 -25 0 -7 3 -2 5 12 5 14 0 19 -2 13 -5z m-1654 -19 c10 -9 -35 -3 -49 6
-11 8 -7 9 15 4 17 -4 32 -8 34 -10z m70 -17 c15 -3 68 0 117 6 103 14 174 11
174 -6 0 -8 -24 -13 -73 -14 -39 -1 -92 -3 -117 -5 -25 -2 -65 -5 -89 -6 -32
-2 -42 -6 -38 -16 4 -10 -6 -16 -34 -20 -22 -4 -44 -4 -48 -1 -5 2 -22 0 -37
-5 -18 -6 -46 -7 -74 -1 l-45 9 55 3 c30 2 66 4 80 5 14 1 40 3 58 3 18 1 31
5 28 10 -3 5 -3 24 1 42 4 19 9 27 11 18 1 -9 16 -19 31 -22z m1244 19 c-25
-5 -56 -5 -80 1 -34 9 -29 10 42 9 72 0 76 -1 38 -10z m240 7 c-7 -2 -19 -2
-25 0 -7 3 -2 5 12 5 14 0 19 -2 13 -5z m-1776 -9 c-3 -3 -12 -4 -19 -1 -8 3
-5 6 6 6 11 1 17 -2 13 -5z m1363 -6 c0 -4 -13 -8 -30 -8 -16 0 -30 4 -30 8 0
5 14 9 30 9 17 0 30 -4 30 -9z m-1423 -4 c-3 -3 -12 -4 -19 -1 -8 3 -5 6 6 6
11 1 17 -2 13 -5z m1020 -9 c32 -4 78 -2 102 3 24 6 51 8 60 4 17 -7 -99 -30
-179 -37 l-45 -3 45 7 c25 5 36 9 25 10 -11 1 -30 4 -42 7 -16 4 -23 0 -28
-15 -10 -31 -25 -25 -25 10 0 23 4 30 14 26 8 -3 41 -9 73 -12z m302 -1 c-11
-10 -24 -13 -42 -8 -41 10 -32 24 15 24 38 0 41 -1 27 -16z m-3262 0 c-3 -3
-12 -4 -19 -1 -8 3 -5 6 6 6 11 1 17 -2 13 -5z m100 0 c-3 -3 -12 -4 -19 -1
-8 3 -5 6 6 6 11 1 17 -2 13 -5z m2119 -12 c-3 -5 -45 -12 -93 -16 -48 -3
-105 -9 -128 -13 -33 -4 -38 -3 -28 8 8 8 51 15 115 19 57 4 111 8 121 8 10 1
16 -2 13 -6z m952 -10 c2 -7 -4 -12 -13 -12 -9 0 -13 -4 -10 -10 3 -5 -1 -10
-9 -10 -19 0 -20 4 -4 30 13 21 29 22 36 2z m652 8 c-8 -5 -28 -9 -45 -9 -29
1 -29 1 -5 9 14 4 34 8 45 9 16 1 17 -1 5 -9z m80 0 c-8 -5 -26 -9 -40 -9
l-25 1 25 8 c14 4 32 8 40 9 13 1 13 0 0 -9z m-234 -7 c-11 -11 -66 -12 -66
-2 0 5 17 9 37 9 20 0 33 -3 29 -7z m-1216 -13 c0 -5 -7 -10 -15 -10 -8 0 -15
5 -15 10 0 6 7 10 15 10 8 0 15 -4 15 -10z m98 0 c55 0 39 -26 -20 -34 -75 -8
-108 -7 -108 4 0 5 13 7 29 4 16 -4 32 -1 35 5 4 6 2 11 -3 11 -6 0 -11 5 -11
11 0 7 9 9 23 5 12 -3 37 -6 55 -6z m538 -15 c7 -28 0 -55 -15 -55 -6 0 -8 13
-4 30 5 26 3 30 -16 30 -12 0 -19 4 -16 10 12 20 45 10 51 -15z m2451 19 c-3
-3 -12 -4 -19 -1 -8 3 -5 6 6 6 11 1 17 -2 13 -5z m-3593 -12 c2 -4 -13 -6
-35 -4 -21 2 -39 6 -39 8 0 7 69 4 74 -4z m436 -4 l-25 -11 30 -7 c32 -8 35
-7 -35 -14 -8 0 -22 6 -30 14 -14 13 -14 16 5 22 11 3 34 6 50 6 l30 1 -25
-11z m1182 -2 c-13 -7 -38 -10 -55 -7 l-32 5 35 7 c19 3 44 7 55 7 18 1 18 0
-3 -12z m-368 -11 c-5 -11 -2 -13 10 -9 9 3 16 10 16 16 0 5 5 6 10 3 6 -4 5
-12 -4 -21 -17 -16 -116 -20 -116 -4 0 6 14 10 30 10 17 0 30 5 30 10 0 6 7
10 15 10 9 0 12 -6 9 -15z m195 6 c9 -6 10 -11 2 -15 -6 -4 -11 -3 -11 3 0 5
-12 12 -27 14 -27 4 -27 4 -3 5 14 1 31 -2 39 -7z m211 -21 c0 -5 -5 -10 -11
-10 -5 0 -7 5 -4 10 3 6 8 10 11 10 2 0 4 -4 4 -10z m-3687 -7 c-7 -2 -19 -2
-25 0 -7 3 -2 5 12 5 14 0 19 -2 13 -5z m2347 -3 c0 -5 -4 -10 -10 -10 -5 0
-10 5 -10 10 0 6 5 10 10 10 6 0 10 -4 10 -10z m41 -3 c-1 -12 -15 -9 -19 4
-3 6 1 10 8 8 6 -3 11 -8 11 -12z m1459 -15 c0 -8 -1 -13 -3 -11 -1 2 -9 12
-16 22 -12 15 -12 17 3 11 9 -3 16 -13 16 -22z m-1687 11 c-7 -2 -19 -2 -25 0
-7 3 -2 5 12 5 14 0 19 -2 13 -5z m1627 -3 c0 -5 -11 -10 -24 -10 -13 0 -31
-3 -40 -6 -9 -3 -16 -1 -16 4 0 10 23 18 63 21 9 0 17 -3 17 -9z m135 4 c13
-5 14 -8 3 -15 -21 -14 -38 -10 -32 6 7 17 7 17 29 9z m-2138 -10 c-3 -3 -12
-4 -19 -1 -8 3 -5 6 6 6 11 1 17 -2 13 -5z m883 -3 c0 -10 -50 -17 -165 -25
-33 -2 -52 -2 -42 1 9 2 17 8 17 12 0 4 14 8 31 9 17 0 33 2 35 4 8 9 124 8
124 -1z m415 -1 c-3 -5 -11 -10 -16 -10 -6 0 -7 5 -4 10 3 6 11 10 16 10 6 0
7 -4 4 -10z m565 0 c8 -2 -16 -6 -55 -10 -69 -7 -108 -4 -101 9 4 6 123 6 156
1z m2063 3 c-7 -2 -19 -2 -25 0 -7 3 -2 5 12 5 14 0 19 -2 13 -5z m-2243 -13
c0 -5 -4 -10 -10 -10 -5 0 -10 5 -10 10 0 6 5 10 10 10 6 0 10 -4 10 -10z
m-1403 -6 c-3 -3 -12 -4 -19 -1 -8 3 -5 6 6 6 11 1 17 -2 13 -5z m100 0 c-3
-3 -12 -4 -19 -1 -8 3 -5 6 6 6 11 1 17 -2 13 -5z m258 -4 c3 -5 -1 -10 -9
-10 -9 0 -16 5 -16 10 0 6 4 10 9 10 6 0 13 -4 16 -10z m622 4 c-3 -3 -12 -4
-19 -1 -8 3 -5 6 6 6 11 1 17 -2 13 -5z m90 0 c-3 -3 -12 -4 -19 -1 -8 3 -5 6
6 6 11 1 17 -2 13 -5z m193 -4 c0 -24 -193 -46 -211 -24 -8 10 -3 12 23 8 18
-3 65 1 103 9 39 8 73 15 78 16 4 0 7 -3 7 -9z m-3573 -6 c-3 -3 -12 -4 -19
-1 -8 3 -5 6 6 6 11 1 17 -2 13 -5z m2078 -4 c4 -6 -9 -10 -32 -9 -34 1 -35 2
-13 9 35 11 38 11 45 0z m545 -4 c0 -8 -5 -16 -11 -18 -19 -6 -89 4 -84 13 3
4 19 6 35 2 19 -3 30 -1 30 6 0 6 7 11 15 11 8 0 15 -6 15 -14z m1043 7 c-13
-2 -35 -2 -50 0 -16 2 -5 4 22 4 28 0 40 -2 28 -4z m-4056 -9 c-3 -3 -12 -4
-19 -1 -8 3 -5 6 6 6 11 1 17 -2 13 -5z m4500 0 c-3 -3 -12 -4 -19 -1 -8 3 -5
6 6 6 11 1 17 -2 13 -5z m168 -4 c3 -5 -3 -10 -15 -10 -12 0 -18 5 -15 10 3 6
10 10 15 10 5 0 12 -4 15 -10z m-1835 -10 c-36 -12 -62 -12 -55 0 3 6 23 10
43 9 33 -1 34 -2 12 -9z m65 0 c-3 -5 -10 -10 -16 -10 -5 0 -9 5 -9 10 0 6 7
10 16 10 8 0 12 -4 9 -10z m355 0 c19 -2 -8 -6 -60 -10 -94 -6 -143 0 -86 10
31 5 86 5 146 0z m-2635 -10 c3 -5 -1 -10 -10 -10 -9 0 -13 5 -10 10 3 6 8 10
10 10 2 0 7 -4 10 -10z m2120 0 c-3 -5 -15 -10 -26 -10 -11 0 -17 5 -14 10 3
6 15 10 26 10 11 0 17 -4 14 -10z m863 -15 c0 -14 -4 -25 -9 -25 -5 0 -9 4 -9
9 0 5 -3 16 -6 25 -4 10 -1 16 9 16 9 0 15 -10 15 -25z m32 15 c0 -5 -2 -10
-4 -10 -3 0 -8 5 -11 10 -3 6 -1 10 4 10 6 0 11 -4 11 -10z m110 -9 c0 -12
-99 -30 -106 -20 -3 5 10 9 28 10 28 0 30 2 13 10 -17 8 -16 9 8 5 15 -2 30 1
33 6 6 9 24 1 24 -11z m-1065 -1 c3 -5 1 -10 -4 -10 -6 0 -11 5 -11 10 0 6 2
10 4 10 3 0 8 -4 11 -10z m1770 0 c-3 -5 -12 -10 -20 -10 -8 0 -17 5 -20 10
-4 6 5 10 20 10 15 0 24 -4 20 -10z m-1140 -10 c-3 -5 -23 -9 -43 -9 l-37 2
40 7 c22 4 41 8 43 9 2 0 0 -3 -3 -9z m585 1 c-8 -4 -37 -5 -65 -1 l-50 7 65
1 c39 1 59 -2 50 -7z m475 -1 c-3 -5 -16 -10 -28 -10 -18 0 -19 2 -7 10 20 13
43 13 35 0z m-3485 -10 c0 -5 -7 -10 -16 -10 -8 0 -12 5 -9 10 3 6 10 10 16
10 5 0 9 -4 9 -10z m1945 0 c3 -5 1 -10 -4 -10 -6 0 -11 5 -11 10 0 6 2 10 4
10 3 0 8 -4 11 -10z m205 1 c0 -14 -27 -21 -77 -21 -55 0 -52 7 8 19 61 12 69
12 69 2z m130 -7 c0 -2 -21 -3 -47 -3 -46 2 -47 2 -13 8 33 7 60 4 60 -5z m53
9 c-7 -2 -19 -2 -25 0 -7 3 -2 5 12 5 14 0 19 -2 13 -5z m947 -13 c11 -7 -3
-9 -45 -9 -45 1 -54 3 -35 9 35 11 63 11 80 0z m133 3 c-7 -2 -19 -2 -25 0 -7
3 -2 5 12 5 14 0 19 -2 13 -5z m744 1 c-3 -3 -12 -4 -19 -1 -8 3 -5 6 6 6 11
1 17 -2 13 -5z m-2330 -10 c-3 -3 -12 -4 -19 -1 -8 3 -5 6 6 6 11 1 17 -2 13
-5z m1531 -1 c-10 -2 -28 -2 -40 0 -13 2 -5 4 17 4 22 1 32 -1 23 -4z m192 -3
c0 -5 -2 -10 -4 -10 -3 0 -8 5 -11 10 -3 6 -1 10 4 10 6 0 11 -4 11 -10z
m1683 3 c-7 -2 -21 -2 -30 0 -10 3 -4 5 12 5 17 0 24 -2 18 -5z m-3536 -9 c-3
-3 -12 -4 -19 -1 -8 3 -5 6 6 6 11 1 17 -2 13 -5z m711 0 c14 -4 22 -13 21
-28 -1 -17 -2 -17 -6 -3 -3 11 -14 17 -31 17 -15 0 -34 5 -42 10 -12 8 -10 10
10 10 14 0 35 -3 48 -6z m421 -6 c58 0 115 -2 126 -6 35 -10 -24 -19 -71 -11
-23 5 -74 5 -113 0 -65 -7 -71 -6 -71 12 0 11 4 15 12 11 6 -4 59 -7 117 -6z
m-603 -21 c2 -14 -5 -17 -39 -16 -30 2 -34 3 -14 6 16 3 27 11 27 19 0 21 23
12 26 -9z m101 17 c-3 -3 -12 -4 -19 -1 -8 3 -5 6 6 6 11 1 17 -2 13 -5z m678
-4 c-3 -5 -10 -10 -16 -10 -5 0 -9 5 -9 10 0 6 7 10 16 10 8 0 12 -4 9 -10z
m134 6 c-2 -2 -26 -6 -54 -10 -36 -5 -46 -4 -35 3 13 10 99 16 89 7z m738 -2
c-3 -3 -12 -4 -19 -1 -8 3 -5 6 6 6 11 1 17 -2 13 -5z m-242 -14 c-3 -5 -14
-10 -23 -10 -15 0 -15 2 -2 10 20 13 33 13 25 0z m-1625 -20 c18 -12 2 -12
-25 0 -13 6 -15 9 -5 9 8 0 22 -4 30 -9z m105 0 c-7 -12 -42 -12 -70 0 -15 6
-8 9 28 9 30 1 46 -3 42 -9z m198 3 c-13 -2 -33 -2 -45 0 -13 2 -3 4 22 4 25
0 35 -2 23 -4z m54 1 c-3 -3 -12 -4 -19 -1 -8 3 -5 6 6 6 11 1 17 -2 13 -5z
m1150 0 c-3 -3 -12 -4 -19 -1 -8 3 -5 6 6 6 11 1 17 -2 13 -5z m-1754 -11
c-13 -2 -33 -2 -45 0 -13 2 -3 4 22 4 25 0 35 -2 23 -4z m-1996 -9 c-3 -3 -12
-4 -19 -1 -8 3 -5 6 6 6 11 1 17 -2 13 -5z m228 -14 c3 -5 -1 -10 -9 -10 -8 0
-18 5 -21 10 -3 6 1 10 9 10 8 0 18 -4 21 -10z m923 3 c-10 -2 -26 -2 -35 0
-10 3 -2 5 17 5 19 0 27 -2 18 -5z m2172 -3 c0 -5 -24 -10 -54 -10 -29 0 -69
-3 -87 -6 -20 -4 -31 -3 -26 2 7 8 47 14 150 22 9 1 17 -2 17 -8z m535 1 c-6
-5 -37 -10 -70 -11 -85 -2 -91 2 -15 10 36 4 72 7 80 8 9 1 10 -1 5 -7z m1822
3 c-3 -3 -12 -4 -19 -1 -8 3 -5 6 6 6 11 1 17 -2 13 -5z m-5390 -10 c-3 -3
-12 -4 -19 -1 -8 3 -5 6 6 6 11 1 17 -2 13 -5z m4296 -1 c-13 -2 -35 -2 -50 0
-16 2 -5 4 22 4 28 0 40 -2 28 -4z m880 0 c-7 -2 -19 -2 -25 0 -7 3 -2 5 12 5
14 0 19 -2 13 -5z m-2433 -13 c0 -5 -9 -10 -21 -10 -11 0 -17 5 -14 10 3 6 13
10 21 10 8 0 14 -4 14 -10z m997 4 c-3 -3 -12 -4 -19 -1 -8 3 -5 6 6 6 11 1
17 -2 13 -5z m1090 0 c-3 -3 -12 -4 -19 -1 -8 3 -5 6 6 6 11 1 17 -2 13 -5z
m-2162 -14 c3 -5 1 -10 -4 -10 -6 0 -11 5 -11 10 0 6 2 10 4 10 3 0 8 -4 11
-10z m-408 -6 c-3 -3 -12 -4 -19 -1 -8 3 -5 6 6 6 11 1 17 -2 13 -5z m703 -4
c-19 -13 -30 -13 -30 0 0 6 10 10 23 10 18 0 19 -2 7 -10z m83 3 c-7 -2 -21
-2 -30 0 -10 3 -4 5 12 5 17 0 24 -2 18 -5z m-1014 -34 c-24 -15 -45 -11 -24
5 11 8 24 12 28 9 5 -3 3 -9 -4 -14z m68 15 c-3 -3 -12 -4 -19 -1 -8 3 -5 6 6
6 11 1 17 -2 13 -5z m-299 -11 c-10 -2 -28 -2 -40 0 -13 2 -5 4 17 4 22 1 32
-1 23 -4z m75 0 c-7 -2 -19 -2 -25 0 -7 3 -2 5 12 5 14 0 19 -2 13 -5z m1360
0 c-7 -2 -19 -2 -25 0 -7 3 -2 5 12 5 14 0 19 -2 13 -5z m290 0 c-7 -2 -21 -2
-30 0 -10 3 -4 5 12 5 17 0 24 -2 18 -5z m-363 -10 c-19 -2 -69 -7 -110 -12
-41 -5 -88 -7 -105 -3 -28 6 -28 7 15 13 25 3 88 6 140 6 52 0 79 -2 60 -4z
m268 0 c-16 -2 -40 -2 -55 0 -16 2 -3 4 27 4 30 0 43 -2 28 -4z m722 -3 c0 -5
-8 -10 -17 -10 -15 0 -16 2 -3 10 19 12 20 12 20 0z m80 6 c0 -2 -9 -6 -20 -9
-11 -3 -18 -1 -14 4 5 9 34 13 34 5z m-865 -26 c4 -6 -34 -9 -107 -8 l-113 2
80 6 c44 3 92 7 107 8 15 1 30 -2 33 -8z m-3865 -20 c0 -5 -4 -10 -10 -10 -5
0 -10 5 -10 10 0 6 5 10 10 10 6 0 10 -4 10 -10z m3377 4 c-3 -3 -12 -4 -19
-1 -8 3 -5 6 6 6 11 1 17 -2 13 -5z m1163 2 c0 -2 -7 -6 -15 -10 -8 -3 -15 -1
-15 4 0 6 7 10 15 10 8 0 15 -2 15 -4z m1553 -3 c-7 -2 -19 -2 -25 0 -7 3 -2
5 12 5 14 0 19 -2 13 -5z m520 0 c-7 -2 -19 -2 -25 0 -7 3 -2 5 12 5 14 0 19
-2 13 -5z m-7150 -10 c-7 -2 -19 -2 -25 0 -7 3 -2 5 12 5 14 0 19 -2 13 -5z
m842 -13 c3 -6 -1 -7 -9 -4 -18 7 -21 14 -7 14 6 0 13 -4 16 -10z m5398 -7
c-7 -2 -21 -2 -30 0 -10 3 -4 5 12 5 17 0 24 -2 18 -5z m-5295 -10 c-10 -2
-26 -2 -35 0 -10 3 -2 5 17 5 19 0 27 -2 18 -5z m95 0 c-13 -2 -35 -2 -50 0
-16 2 -5 4 22 4 28 0 40 -2 28 -4z m172 -3 c-3 -5 -14 -10 -23 -9 -14 0 -13 2
3 9 27 11 27 11 20 0z m4705 0 c0 -5 -7 -10 -16 -10 -8 0 -12 5 -9 10 3 6 10
10 16 10 5 0 9 -4 9 -10z m705 0 c3 -5 1 -10 -4 -10 -6 0 -11 5 -11 10 0 6 2
10 4 10 3 0 8 -4 11 -10z m-6095 -10 c0 -5 -2 -10 -4 -10 -3 0 -8 5 -11 10 -3
6 -1 10 4 10 6 0 11 -4 11 -10z m740 0 c0 -5 -7 -7 -15 -4 -8 4 -15 8 -15 10
0 2 7 4 15 4 8 0 15 -4 15 -10z m5643 3 c-7 -2 -21 -2 -30 0 -10 3 -4 5 12 5
17 0 24 -2 18 -5z m-6665 -10 c-10 -2 -26 -2 -35 0 -10 3 -2 5 17 5 19 0 27
-2 18 -5z m4511 3 c-2 -2 -26 -6 -53 -9 -30 -3 -43 -1 -35 4 13 8 97 13 88 5z
m2078 -2 c-3 -3 -12 -4 -19 -1 -8 3 -5 6 6 6 11 1 17 -2 13 -5z m-6514 -11
c-7 -2 -21 -2 -30 0 -10 3 -4 5 12 5 17 0 24 -2 18 -5z m4677 -3 c0 -5 -11
-10 -25 -10 -14 0 -25 5 -25 10 0 6 11 10 25 10 14 0 25 -4 25 -10z m160 0 c0
-5 -9 -10 -21 -10 -11 0 -17 5 -14 10 3 6 13 10 21 10 8 0 14 -4 14 -10z m295
-1 c-22 -4 -58 -7 -80 -7 l-40 1 40 7 c22 4 58 7 80 7 l40 1 -40 -9z m312 5
c-3 -3 -12 -4 -19 -1 -8 3 -5 6 6 6 11 1 17 -2 13 -5z m-4334 -11 c-7 -2 -19
-2 -25 0 -7 3 -2 5 12 5 14 0 19 -2 13 -5z m357 -3 c10 -7 1 -8 -30 -4 -56 8
-64 14 -19 14 19 0 41 -5 49 -10z m3123 3 c-7 -2 -19 -2 -25 0 -7 3 -2 5 12 5
14 0 19 -2 13 -5z m792 -3 c-16 -4 -52 -8 -80 -8 -47 1 -48 1 -15 8 19 4 55 7
80 8 40 0 42 -1 15 -8z m262 4 c-3 -3 -12 -4 -19 -1 -8 3 -5 6 6 6 11 1 17 -2
13 -5z m-4727 -13 c0 -4 -11 -6 -25 -3 -14 2 -25 6 -25 8 0 2 11 4 25 4 14 0
25 -4 25 -9z m335 0 l40 -9 -40 0 c-22 0 -60 3 -85 7 l-45 8 45 1 c25 1 63 -3
85 -7z m262 3 c-3 -3 -12 -4 -19 -1 -8 3 -5 6 6 6 11 1 17 -2 13 -5z m4303 -8
c0 -8 -61 -12 -66 -4 -3 4 11 8 30 8 20 0 36 -2 36 -4z m47 -2 c-3 -3 -12 -4
-19 -1 -8 3 -5 6 6 6 11 1 17 -2 13 -5z m196 -1 c-7 -2 -21 -2 -30 0 -10 3 -4
5 12 5 17 0 24 -2 18 -5z m-5504 -19 c8 -7 -64 -2 -89 6 -16 6 -6 7 30 3 30
-3 57 -7 59 -9z m106 6 c-27 -12 -43 -12 -25 0 8 5 22 9 30 9 10 0 8 -3 -5 -9z
m85 0 c11 -8 7 -9 -15 -4 -37 8 -45 14 -19 14 10 0 26 -5 34 -10z m4723 3 c-7
-2 -19 -2 -25 0 -7 3 -2 5 12 5 14 0 19 -2 13 -5z m194 1 c-3 -3 -12 -4 -19
-1 -8 3 -5 6 6 6 11 1 17 -2 13 -5z m320 0 c-3 -3 -12 -4 -19 -1 -8 3 -5 6 6
6 11 1 17 -2 13 -5z m-5150 -10 c-3 -3 -12 -4 -19 -1 -8 3 -5 6 6 6 11 1 17
-2 13 -5z m45 -6 c-9 -9 -15 -9 -24 0 -9 9 -7 12 12 12 19 0 21 -3 12 -12z
m205 6 c-3 -3 -12 -4 -19 -1 -8 3 -5 6 6 6 11 1 17 -2 13 -5z m4313 -4 c-8 -5
-31 -9 -50 -9 l-35 1 30 8 c17 4 39 8 50 9 16 1 17 -1 5 -9z m-573 -16 c-3 -3
-12 -4 -19 -1 -8 3 -5 6 6 6 11 1 17 -2 13 -5z m183 -4 c0 -5 -2 -10 -4 -10
-3 0 -8 5 -11 10 -3 6 -1 10 4 10 6 0 11 -4 11 -10z m-373 -6 c-3 -3 -12 -4
-19 -1 -8 3 -5 6 6 6 11 1 17 -2 13 -5z m-200 -20 c-3 -3 -12 -4 -19 -1 -8 3
-5 6 6 6 11 1 17 -2 13 -5z m1396 -1 c-7 -2 -19 -2 -25 0 -7 3 -2 5 12 5 14 0
19 -2 13 -5z m-5118 -13 c18 -8 17 -9 -7 -9 -16 -1 -28 4 -28 9 0 12 8 12 35
0z m5232 -26 c-3 -3 -12 -4 -19 -1 -8 3 -5 6 6 6 11 1 17 -2 13 -5z m60 0 c-3
-3 -12 -4 -19 -1 -8 3 -5 6 6 6 11 1 17 -2 13 -5z m270 0 c-3 -3 -12 -4 -19
-1 -8 3 -5 6 6 6 11 1 17 -2 13 -5z m-1804 -11 c-7 -2 -19 -2 -25 0 -7 3 -2 5
12 5 14 0 19 -2 13 -5z m1680 0 c-18 -2 -48 -2 -65 0 -18 2 -4 4 32 4 36 0 50
-2 33 -4z m-5628 -13 c3 -6 -1 -7 -9 -4 -18 7 -21 14 -7 14 6 0 13 -4 16 -10z
m60 0 c-3 -5 -10 -10 -16 -10 -5 0 -9 5 -9 10 0 6 7 10 16 10 8 0 12 -4 9 -10z
m-150 -9 c-6 -5 -36 -6 -70 -1 l-60 7 70 2 c42 0 65 -3 60 -8z m242 3 c-3 -3
-12 -4 -19 -1 -8 3 -5 6 6 6 11 1 17 -2 13 -5z m3983 -4 c-14 -4 -52 -8 -85
-7 l-60 0 55 7 c30 4 69 7 85 7 29 1 29 1 5 -7z m900 -10 c0 -5 -12 -10 -27
-10 -22 0 -25 2 -13 10 20 13 40 13 40 0z m-710 -10 c0 -5 -5 -10 -11 -10 -5
0 -7 5 -4 10 3 6 8 10 11 10 2 0 4 -4 4 -10z m-3842 -17 c-10 -2 -26 -2 -35 0
-10 3 -2 5 17 5 19 0 27 -2 18 -5z m-331 -9 c-3 -3 -12 -4 -19 -1 -8 3 -5 6 6
6 11 1 17 -2 13 -5z m418 -4 c3 -5 1 -10 -4 -10 -6 0 -11 5 -11 10 0 6 2 10 4
10 3 0 8 -4 11 -10z m3978 3 c-7 -2 -19 -2 -25 0 -7 3 -2 5 12 5 14 0 19 -2
13 -5z m-133 -17 c0 -2 -7 -7 -16 -10 -8 -3 -12 -2 -9 4 6 10 25 14 25 6z
m385 -76 c3 -5 -1 -10 -10 -10 -9 0 -13 5 -10 10 3 6 8 10 10 10 2 0 7 -4 10
-10z m-50 -19 c-12 -11 -95 -19 -95 -9 0 6 30 12 85 16 11 1 15 -2 10 -7z
m-5608 -7 c-3 -3 -12 -4 -19 -1 -8 3 -5 6 6 6 11 1 17 -2 13 -5z m1558 -14 c3
-5 2 -10 -4 -10 -5 0 -13 5 -16 10 -3 6 -2 10 4 10 5 0 13 -4 16 -10z m-370
-28 c-3 -3 -11 0 -18 7 -9 10 -8 11 6 5 10 -3 15 -9 12 -12z m445 8 c0 -5 -6
-10 -14 -10 -8 0 -18 5 -21 10 -3 6 3 10 14 10 12 0 21 -4 21 -10z m4413 -57
c-7 -2 -19 -2 -25 0 -7 3 -2 5 12 5 14 0 19 -2 13 -5z m-4920 -40 c-7 -2 -19
-2 -25 0 -7 3 -2 5 12 5 14 0 19 -2 13 -5z m274 -29 c-3 -3 -12 -4 -19 -1 -8
3 -5 6 6 6 11 1 17 -2 13 -5z m-160 -100 c-3 -3 -12 -4 -19 -1 -8 3 -5 6 6 6
11 1 17 -2 13 -5z"/>
<path d="M14618 5103 c7 -3 16 -2 19 1 4 3 -2 6 -13 5 -11 0 -14 -3 -6 -6z"/>
<path d="M14743 5088 c-13 -6 -23 -17 -23 -24 0 -7 -6 -15 -12 -17 -14 -6 79
2 100 9 9 2 8 9 -5 24 -19 22 -28 23 -60 8z"/>
<path d="M14480 4920 c0 -5 7 -10 16 -10 8 0 12 5 9 10 -3 6 -10 10 -16 10 -5
0 -9 -4 -9 -10z"/>
<path d="M14360 4870 c-11 -6 -12 -12 -4 -20 13 -13 44 -2 44 16 0 16 -18 18
-40 4z"/>
<path d="M14400 4684 c0 -8 5 -12 10 -9 6 3 10 10 10 16 0 5 -4 9 -10 9 -5 0
-10 -7 -10 -16z"/>
<path d="M14220 4606 c0 -2 7 -7 16 -10 8 -3 12 -2 9 4 -6 10 -25 14 -25 6z"/>
<path d="M9778 4450 c33 -21 40 -38 21 -57 -9 -9 -7 -10 10 -6 12 3 21 13 21
23 0 20 -49 60 -72 60 -7 0 2 -9 20 -20z"/>
<path d="M14418 4463 c12 -2 32 -2 45 0 12 2 2 4 -23 4 -25 0 -35 -2 -22 -4z"/>
<path d="M9282 4452 c-12 -2 -20 -7 -17 -12 3 -5 13 -6 21 -3 9 3 19 1 23 -5
4 -7 14 -5 31 5 14 8 17 12 6 9 -10 -4 -24 -3 -30 2 -6 4 -21 6 -34 4z"/>
<path d="M9400 4430 c0 -5 10 -10 23 -10 18 0 19 2 7 10 -19 13 -30 13 -30 0z"/>
<path d="M14488 4433 c7 -3 16 -2 19 1 4 3 -2 6 -13 5 -11 0 -14 -3 -6 -6z"/>
<path d="M9360 4421 c0 -5 9 -11 21 -14 16 -4 18 -3 8 9 -13 16 -29 19 -29 5z"/>
<path d="M9336 4401 c-4 -7 -5 -15 -2 -18 9 -9 19 4 14 18 -4 11 -6 11 -12 0z"/>
<path d="M9840 4380 c0 -5 7 -10 16 -10 8 0 12 5 9 10 -3 6 -10 10 -16 10 -5
0 -9 -4 -9 -10z"/>
<path d="M14320 4365 c0 -11 11 -15 40 -15 29 0 40 4 40 15 0 11 -11 15 -40
15 -29 0 -40 -4 -40 -15z"/>
<path d="M9790 4350 c-8 -5 -10 -10 -5 -10 6 0 17 5 25 10 8 5 11 10 5 10 -5
0 -17 -5 -25 -10z"/>
<path d="M9824 4324 c-18 -14 -18 -15 4 -4 12 6 22 13 22 15 0 8 -5 6 -26 -11z"/>
<path d="M9295 4300 c3 -5 14 -10 23 -10 15 0 15 2 2 10 -20 13 -33 13 -25 0z"/>
<path d="M14398 4234 c4 -20 9 -23 26 -18 11 4 30 13 41 21 19 13 19 14 -7 8
-14 -4 -35 -2 -46 4 -17 9 -19 7 -14 -15z"/>
<path d="M9265 4240 c-3 -5 -1 -10 4 -10 6 0 11 5 11 10 0 6 -2 10 -4 10 -3 0
-8 -4 -11 -10z"/>
<path d="M13200 4200 c0 -5 16 -10 35 -10 19 0 35 5 35 10 0 6 -16 10 -35 10
-19 0 -35 -4 -35 -10z"/>
<path d="M12178 4193 c-10 -2 -18 -11 -18 -19 0 -20 13 -17 33 6 17 20 16 21
-15 13z"/>
<path d="M11345 4179 c-10 -15 3 -25 16 -12 7 7 7 13 1 17 -6 3 -14 1 -17 -5z"/>
<path d="M11673 4138 c1 -21 4 -24 14 -16 15 12 18 22 4 13 -5 -3 -12 3 -14
12 -3 10 -4 6 -4 -9z"/>
<path d="M11268 4143 c12 -2 30 -2 40 0 9 3 -1 5 -23 4 -22 0 -30 -2 -17 -4z"/>
<path d="M9030 3965 c0 -17 5 -25 13 -22 6 2 12 12 12 22 0 10 -6 20 -12 23
-8 2 -13 -6 -13 -23z"/>
<path d="M9721 3534 c0 -11 3 -14 6 -6 3 7 2 16 -1 19 -3 4 -6 -2 -5 -13z"/>
<path d="M9740 3488 c0 -6 -7 -20 -17 -30 -18 -21 -17 -23 17 -33 23 -7 24 -7
10 10 -11 14 -12 19 -2 22 14 5 17 43 2 43 -5 0 -10 -5 -10 -12z"/>
<path d="M9820 3460 c0 -5 5 -10 10 -10 6 0 10 5 10 10 0 6 -4 10 -10 10 -5 0
-10 -4 -10 -10z"/>
<path d="M9868 3463 c7 -3 16 -2 19 1 4 3 -2 6 -13 5 -11 0 -14 -3 -6 -6z"/>
<path d="M9925 3450 c-4 -6 -15 -8 -26 -5 -23 8 -59 -3 -59 -17 0 -6 14 -8 38
-4 20 3 45 7 55 8 9 2 18 7 18 13 1 14 -18 18 -26 5z"/>
<path d="M9095 4350 c3 -5 8 -10 11 -10 2 0 4 5 4 10 0 6 -5 10 -11 10 -5 0
-7 -4 -4 -10z"/>
<path d="M9050 4329 c0 -5 5 -7 10 -4 6 3 10 8 10 11 0 2 -4 4 -10 4 -5 0 -10
-5 -10 -11z"/>
<path d="M11710 4200 c0 -5 5 -10 11 -10 5 0 7 5 4 10 -3 6 -8 10 -11 10 -2 0
-4 -4 -4 -10z"/>
<path d="M5040 4175 c0 -12 16 -15 80 -15 64 0 80 3 80 15 0 12 -16 15 -80 15
-64 0 -80 -3 -80 -15z"/>
<path d="M8065 4060 c3 -5 11 -10 16 -10 6 0 7 5 4 10 -3 6 -11 10 -16 10 -6
0 -7 -4 -4 -10z"/>
<path d="M8295 4000 c3 -5 8 -10 11 -10 2 0 4 5 4 10 0 6 -5 10 -11 10 -5 0
-7 -4 -4 -10z"/>
</g>
</svg>
