<?xml version="1.0" encoding="utf-8"?>
<!-- Generator: Adobe Illustrator 19.2.1, SVG Export Plug-In . SVG Version: 6.00 Build 0)  -->
<svg version="1.1" id="layer" xmlns="http://www.w3.org/2000/svg" xmlns:xlink="http://www.w3.org/1999/xlink" x="0px" y="0px"
	 viewBox="0 0 652 652" style="enable-background:new 0 0 652 652;" xml:space="preserve">
<style type="text/css">
	.st0{fill:#FFFFFF;}
	.st1{fill:none;stroke:#FFFFFF;stroke-width:5.8269;stroke-miterlimit:3.864;}
	.st2{fill:#00489B;}
	.st3{fill:#C50024;}
	.st4{fill-rule:evenodd;clip-rule:evenodd;fill:#FFFFFF;}
</style>
<polygon class="st0" points="607.7,360.9 196.1,360.9 196.2,379.5 124.9,412.1 54.1,379.5 54.1,360.9 14.7,360.9 14.7,259.5 
	54.1,259.2 54.1,241.2 195.5,241.2 195.4,259.5 638.3,259.5 "/>
<g>
	<polygon class="st1" points="607.7,360.9 196.1,360.9 196.2,379.5 124.9,412.1 54.1,379.5 54.1,360.9 14.7,360.9 14.7,259.5 
		54.1,259.2 54.1,241.2 195.5,241.2 195.4,259.5 638.3,259.5 	"/>
</g>
<polygon class="st2" points="14.7,360.9 14.7,353.3 609.9,353.3 607.7,360.9 "/>
<polygon class="st2" points="14.7,267.7 14.7,260.1 637.6,260.1 635.4,267.7 "/>
<polygon class="st2" points="195.4,271 634.5,271 611.2,350 195.7,350 195.7,379.4 125,411.9 54.1,379.5 54.1,350 14.7,350 
	14.7,271 54.1,271 54.1,241.2 195.4,241.2 "/>
<polygon class="st0" points="187.3,375.9 124.8,403.2 62.7,376 62.7,251 187.1,251 "/>
<polygon class="st3" points="178.4,370.7 124.8,394.4 71.5,370.7 71.5,259.9 178.4,259.8 "/>
<polygon class="st0" points="94.1,279.3 116.9,279.3 116.9,339.4 155.9,339.4 155.9,355.4 94.1,355.4 "/>
<polygon class="st0" points="216,282.3 236.2,282.3 236.2,325.7 270.6,325.7 270.6,339.9 216,339.9 "/>
<g>
	<path class="st4" d="M390.1,324.5l27.3,0c9.1,0,16.4-7.3,16.4-16.4v-9.6c0-9.1-7.3-16.4-16.4-16.4h-52.9l-1.5,0l0,57.7h20.2l0-42.5
		h1.9h31.2c1.4,0,2.5,1.1,2.5,2.5v7.3c0,1.4-1.1,2.5-2.5,2.5h-26.2L390.1,324.5z"/>
	<path class="st4" d="M491,282.2l0,36.2c0,4.1-3.3,7.4-7.4,7.4h-20.1c-4.1,0-7.4-3.3-7.4-7.4v-36.2l-17.2,0.1v38.8
		c0,10.4,8.4,18.9,18.9,18.9h31.7c10.4,0,18.9-8.4,18.9-18.9l0-38.8L491,282.2z"/>
	<path class="st4" d="M298.2,331.1l-5,8.7h-19.9l31.7-57.6h25.5l29.1,57.6h-19.1l-4.7-8.8L298.2,331.1z M328.4,317l-10.7-20.3
		l-11.6,20.4L328.4,317z"/>
	<path class="st4" d="M530.9,331.1l-5,8.7H506l31.7-57.6h25.5l29.1,57.6h-19.1l-4.7-8.8L530.9,331.1z M561.1,317l-10.7-20.3
		l-11.6,20.4L561.1,317z"/>
</g>
</svg>
