<?xml version="1.0" standalone="no"?>
<!DOCTYPE svg PUBLIC "-//W3C//DTD SVG 20010904//EN"
 "http://www.w3.org/TR/2001/REC-SVG-20010904/DTD/svg10.dtd">
<svg version="1.0" xmlns="http://www.w3.org/2000/svg"
 width="512.000000pt" height="512.000000pt" viewBox="0 0 512.000000 512.000000"
 preserveAspectRatio="xMidYMid meet">

<g transform="translate(0.000000,512.000000) scale(0.100000,-0.100000)"
fill="#000000" stroke="none">
<path d="M2530 4465 l0 -125 60 0 60 0 0 125 0 125 -60 0 -60 0 0 -125z"/>
<path d="M2530 4084 l0 -127 -50 47 c-111 104 -283 152 -430 122 -41 -9 -104
-30 -139 -47 -80 -39 -175 -133 -216 -212 -22 -41 -37 -59 -55 -63 -120 -26
-206 -72 -288 -155 -98 -99 -155 -225 -174 -389 l-10 -95 -53 -37 c-137 -97
-244 -319 -261 -542 -12 -153 32 -355 102 -473 27 -46 29 -54 30 -173 2 -143
16 -207 72 -320 83 -171 281 -309 444 -310 28 0 40 -5 49 -22 6 -12 16 -27 21
-32 4 -6 25 -32 44 -58 76 -100 214 -179 356 -204 178 -32 368 22 506 142 l52
46 0 -131 0 -131 60 0 60 0 0 153 c0 85 3 303 7 485 l6 332 59 0 58 0 0 60 0
60 -60 0 -60 0 0 100 0 100 60 0 60 0 0 65 0 65 -60 0 -60 0 0 95 0 95 125 0
125 0 0 65 0 65 -125 0 -125 0 0 100 0 100 60 0 60 0 0 60 0 60 -60 0 -60 0 0
100 0 100 179 0 180 0 132 158 c181 215 157 194 204 177 168 -60 356 96 330
273 -24 163 -177 258 -337 210 -51 -15 -121 -77 -147 -131 -28 -57 -28 -155
-1 -214 l19 -42 -135 -156 -135 -155 -143 0 -143 0 -6 302 c-4 166 -7 370 -7
455 l0 153 -60 0 -60 0 0 -126z m-318 -75 c115 -24 228 -111 277 -212 27 -56
41 -132 41 -223 l0 -74 -47 0 c-92 0 -206 75 -254 165 -13 25 -28 45 -34 45
-30 0 -105 -36 -105 -50 0 -42 111 -180 180 -224 49 -32 144 -66 183 -66 18 0
42 -3 55 -6 l22 -6 0 -258 0 -259 -64 34 c-165 86 -336 41 -519 -138 -104
-101 -170 -144 -239 -153 -51 -7 -115 15 -124 43 -38 125 -129 208 -241 221
l-44 5 3 -64 c3 -63 3 -63 37 -70 72 -15 121 -79 121 -157 0 -75 -55 -145
-125 -158 l-35 -6 0 -65 0 -64 38 7 c71 12 132 46 177 97 25 27 48 60 51 73 7
26 7 26 79 14 122 -20 219 25 372 172 131 127 189 160 286 161 45 1 73 -5 103
-20 45 -24 100 -81 115 -120 5 -13 9 -191 9 -399 l0 -374 -42 0 c-95 0 -214
-50 -291 -122 -44 -40 -117 -149 -117 -173 0 -6 26 -20 58 -32 l58 -21 24 45
c32 60 119 137 176 157 26 9 68 16 92 16 l44 0 -4 -152 c-4 -125 -9 -163 -26
-208 -94 -239 -385 -347 -630 -233 -82 38 -166 123 -206 207 -42 86 -51 144
-37 221 39 209 218 355 436 355 l75 0 0 76 c0 49 6 88 16 110 20 42 94 111
140 130 33 14 34 15 34 74 0 56 -1 60 -23 60 -45 0 -144 -59 -200 -120 -53
-57 -97 -143 -97 -190 0 -15 -7 -20 -29 -20 -79 0 -238 -74 -311 -145 l-36
-35 -59 29 c-67 31 -133 97 -142 141 -5 30 -6 30 -70 30 l-65 0 7 -37 c18 -99
83 -182 186 -237 30 -16 56 -30 58 -32 1 -1 -7 -31 -20 -66 -16 -44 -24 -94
-27 -166 -3 -70 -8 -102 -16 -102 -29 0 -115 36 -163 67 -158 104 -236 291
-211 503 10 87 10 89 -16 122 -71 93 -116 252 -116 406 0 241 115 465 277 542
l53 25 -6 80 c-10 143 38 275 138 381 43 45 149 114 175 114 6 0 11 -30 11
-66 1 -75 22 -155 59 -227 13 -27 23 -50 21 -52 -2 -1 -16 -9 -33 -18 -88 -44
-175 -161 -175 -234 l0 -33 59 0 c57 0 59 1 70 32 18 52 56 93 118 125 l58 31
25 -20 c61 -49 162 -89 263 -103 l47 -6 0 64 0 64 -44 6 c-24 4 -70 16 -102
28 -82 31 -182 131 -213 213 -41 110 -38 223 10 317 46 93 157 179 264 205 65
16 93 16 157 3z m1275 -136 c70 -33 94 -119 50 -184 -27 -41 -60 -59 -107 -59
-68 0 -130 63 -130 133 0 35 40 89 80 109 44 22 63 22 107 1z"/>
<path d="M3862 3547 c-46 -14 -125 -87 -147 -136 l-18 -41 -81 0 -81 -1 -133
-194 -133 -195 -44 0 -45 0 0 -60 0 -60 79 0 78 0 129 190 129 189 52 1 c52 0
53 -1 68 -37 63 -151 268 -199 397 -93 111 91 117 284 12 382 -65 61 -174 84
-262 55z m158 -136 c14 -10 33 -34 44 -55 24 -50 15 -99 -29 -143 -29 -29 -40
-33 -84 -33 -44 0 -56 5 -86 33 -57 52 -60 129 -9 181 47 46 111 53 164 17z"/>
<path d="M2920 2920 l0 -60 60 0 60 0 0 60 0 60 -60 0 -60 0 0 -60z"/>
<path d="M3926 2836 c-59 -22 -108 -67 -136 -123 l-25 -52 -232 -1 -233 0 0
-65 0 -65 233 0 233 0 13 -36 c7 -20 32 -56 55 -79 123 -122 325 -88 409 70
30 56 30 164 0 221 -27 50 -75 98 -122 120 -47 23 -145 28 -195 10z m156 -131
c28 -11 58 -69 58 -110 0 -73 -54 -125 -131 -125 -83 0 -144 80 -120 159 25
84 101 114 193 76z"/>
<path d="M3050 2595 l0 -65 60 0 60 0 0 65 0 65 -60 0 -60 0 0 -65z"/>
<path d="M2920 2275 l0 -65 60 0 60 0 0 65 0 65 -60 0 -60 0 0 -65z"/>
<path d="M3180 2275 l0 -65 49 0 48 0 129 -195 129 -195 81 0 81 0 18 -40 c42
-94 151 -157 253 -147 138 12 232 115 232 252 -1 226 -259 337 -425 184 -23
-21 -50 -57 -60 -79 -18 -39 -19 -40 -69 -40 l-51 1 -125 194 -125 195 -82 0
-83 0 0 -65z m856 -296 c56 -53 53 -143 -7 -194 -24 -19 -42 -25 -80 -25 -42
0 -55 5 -84 33 -57 52 -60 129 -9 181 50 49 131 51 180 5z"/>
<path d="M2920 1951 c0 -49 3 -59 19 -64 11 -3 76 -90 156 -209 l136 -204 -26
-55 c-44 -95 -31 -205 34 -280 65 -77 173 -107 273 -77 48 14 123 78 147 127
63 123 12 277 -113 344 -34 18 -57 22 -129 21 l-89 0 -154 228 -155 228 -50 0
-49 0 0 -59z m596 -554 c88 -80 32 -220 -88 -220 -49 0 -87 26 -112 77 -24 50
-15 99 29 143 29 29 40 33 84 33 44 0 56 -5 87 -33z"/>
<path d="M2530 660 l0 -130 60 0 60 0 0 130 0 130 -60 0 -60 0 0 -130z"/>
</g>
</svg>
