<?xml version="1.0" standalone="no"?>
<!DOCTYPE svg PUBLIC "-//W3C//DTD SVG 20010904//EN"
 "http://www.w3.org/TR/2001/REC-SVG-20010904/DTD/svg10.dtd">
<svg version="1.0" xmlns="http://www.w3.org/2000/svg"
 width="512.000000pt" height="512.000000pt" viewBox="0 0 512.000000 512.000000"
 preserveAspectRatio="xMidYMid meet">

<g transform="translate(0.000000,512.000000) scale(0.100000,-0.100000)"
fill="#000000" stroke="none">
<path d="M2454 5022 c-66 -23 -124 -70 -162 -130 -104 -162 -40 -379 135 -459
l53 -24 0 -325 0 -324 80 0 80 0 0 324 0 325 53 24 c69 31 123 86 156 156 36
78 37 193 1 266 -32 64 -98 131 -158 157 -66 30 -172 34 -238 10z m167 -158
c28 -8 80 -71 89 -108 25 -111 -76 -211 -187 -186 -20 5 -51 24 -70 43 -62 62
-62 153 0 215 46 46 93 56 168 36z"/>
<path d="M1009 4417 c-154 -44 -249 -177 -237 -331 10 -115 72 -207 172 -256
87 -43 160 -49 245 -20 l64 21 229 -228 228 -228 57 58 58 57 -228 228 -228
229 21 64 c67 196 -67 397 -277 414 -33 3 -78 -1 -104 -8z m147 -163 c70 -33
106 -114 85 -186 -36 -118 -182 -152 -268 -62 -117 124 29 321 183 248z"/>
<path d="M3957 4420 c-184 -47 -288 -232 -227 -409 l21 -64 -228 -229 -228
-228 58 -57 57 -58 229 229 229 229 48 -19 c74 -29 175 -26 246 8 241 112 251
452 16 567 -70 34 -158 46 -221 31z m136 -164 c99 -41 127 -172 54 -250 -86
-90 -232 -56 -268 62 -37 126 92 239 214 188z"/>
<path d="M2393 3586 c-208 -40 -367 -126 -518 -280 -128 -131 -214 -286 -246
-443 l-13 -63 -41 0 c-73 0 -179 -29 -265 -71 -261 -129 -403 -439 -330 -723
30 -117 82 -209 170 -297 122 -123 281 -188 457 -189 l73 0 2 -669 c3 -658 3
-670 24 -697 11 -15 33 -37 48 -48 27 -21 35 -21 806 -21 771 0 779 0 806 21
15 11 37 33 48 48 21 27 21 39 24 697 l2 669 71 0 c349 0 650 247 715 588 28
147 9 277 -60 417 -52 103 -126 191 -235 277 -128 102 -272 158 -406 158 l-61
0 -24 58 c-43 105 -104 195 -195 288 -134 137 -272 218 -454 265 -99 27 -298
34 -398 15z m366 -177 c252 -64 458 -252 547 -499 43 -118 45 -119 183 -118
97 1 125 -3 172 -21 125 -48 260 -160 337 -278 127 -198 91 -464 -88 -643
-105 -105 -214 -153 -379 -165 l-91 -8 0 263 c0 247 -1 264 -21 299 -11 20
-32 45 -47 56 -26 20 -45 20 -800 23 -856 3 -817 5 -865 -62 -21 -30 -22 -40
-25 -305 l-3 -274 -89 7 c-145 11 -255 59 -338 150 -136 147 -165 348 -77 534
83 175 275 283 473 265 58 -5 62 -4 91 25 23 22 31 40 31 65 0 57 38 188 80
272 166 335 543 507 909 414z m521 -2209 l0 -960 -720 0 -720 0 0 960 0 960
720 0 720 0 0 -960z"/>
<path d="M2363 1744 c-45 -7 -120 -27 -167 -43 -94 -33 -246 -108 -246 -122 0
-7 31 -60 77 -128 1 -2 33 12 71 32 157 83 350 125 517 113 156 -11 278 -49
457 -144 6 -3 74 95 85 123 6 16 -136 89 -245 126 -168 57 -371 73 -549 43z"/>
<path d="M2440 1434 c-114 -22 -246 -73 -303 -116 -17 -13 -15 -17 24 -73 23
-33 43 -62 45 -64 2 -2 32 10 66 27 106 51 172 67 288 66 114 0 199 -21 293
-71 26 -15 49 -24 51 -22 1 2 21 32 44 66 l41 61 -22 15 c-111 72 -231 108
-382 112 -66 2 -131 1 -145 -1z"/>
<path d="M2431 1104 c-30 -8 -74 -23 -98 -34 l-43 -19 41 -68 c23 -37 42 -69
44 -71 1 -1 24 8 51 20 38 17 68 22 129 22 61 0 91 -5 129 -22 27 -12 50 -21
51 -20 13 18 75 131 75 138 0 10 -91 46 -153 60 -60 14 -163 11 -226 -6z"/>
<path d="M2505 775 c-16 -15 -25 -36 -25 -55 0 -19 9 -40 25 -55 49 -50 135
-15 135 55 0 41 -39 80 -80 80 -19 0 -40 -9 -55 -25z"/>
</g>
</svg>
